<svg xmlns="http://www.w3.org/2000/svg" width="208.998" height="39.998" viewBox="0 0 208.998 39.998">
  <g id="Group_1002" data-name="Group 1002" transform="translate(-60.289 -55.515)">
    <path id="Path_506" data-name="Path 506" d="M263.928,55.515H65.649a5.38,5.38,0,0,0-5.36,5.4v29.2a5.38,5.38,0,0,0,5.36,5.4H263.928a5.38,5.38,0,0,0,5.359-5.4v-29.2A5.38,5.38,0,0,0,263.928,55.515Zm4.729,34.6a4.752,4.752,0,0,1-4.729,4.765h-98.51V56.15h98.51a4.752,4.752,0,0,1,4.729,4.765Z" fill="#208dec"/>
    <path id="Path_507" data-name="Path 507" d="M75.138,65.131,73.561,64.6c-1.314-.442-1.8-1.1-1.8-2.208,0-.883.657-1.545,1.84-1.545h7.843a2.319,2.319,0,0,1,2.585,1.81l5.126,17.394c.745,2.516,1.139,4.723,1.139,4.723h.088a48.121,48.121,0,0,1,1.139-4.768l5.126-17.349a2.365,2.365,0,0,1,2.629-1.81h7.93c1.183,0,1.841.662,1.841,1.545,0,1.1-.438,1.722-1.8,2.208l-1.577.529,2.366,21.1,1.227.53c1.227.53,1.621.971,1.621,1.942a1.9,1.9,0,0,1-2.147,1.854h-7.755a1.9,1.9,0,0,1-2.147-1.854c0-.927.438-1.324,1.753-1.942l1.139-.53-1.227-13.42c-.263-2.826-.438-6.181-.438-6.181h-.088L93.891,87.16c-.832,2.781-1.84,3.62-4.075,3.62-2.191,0-3.2-.839-4.031-3.62l-6.09-20.572h-.088s-.175,3.356-.438,6.225l-1.227,13.42,1.14.53c1.314.618,1.752,1.015,1.752,1.942a1.9,1.9,0,0,1-2.147,1.854H72.071a1.9,1.9,0,0,1-2.147-1.854c0-.971.395-1.412,1.622-1.942l1.227-.53Zm57.481.4a8.469,8.469,0,0,0-3.9-.619c-5.564,0-9.157,3.62-9.157,10.728,0,7.2,3.856,11.08,9.9,11.08a9.488,9.488,0,0,0,2.673-.264V79.523l-3.286-.883c-1.271-.353-1.841-.927-1.841-2.031,0-.883.658-1.589,1.885-1.589h7.273c1.446,0,2.1.662,2.1,2.119v8.432a3.587,3.587,0,0,1-1.49,3.355c-1.1.795-3.461,2.119-9.069,2.119-9.026,0-14.591-5.606-14.591-14.7,0-9.491,6.353-15.892,16.65-15.892,3.987,0,6.265.75,7.185,1.677.614.618.745,1.281.745,3.532v.618c0,1.281,0,1.943-.044,3a1.6,1.6,0,0,1-1.752,1.766c-1.008,0-1.665-.53-2.059-1.722Zm13.185-.353-1.928-.619c-1.314-.441-1.8-1.015-1.8-2.118,0-.883.658-1.59,1.885-1.59h9.814c1.227,0,1.884.707,1.884,1.59,0,1.1-.482,1.677-1.8,2.118l-1.928.619V86.233l2.059.662c1.271.4,1.665.839,1.665,1.81a1.9,1.9,0,0,1-2.147,1.854h-9.289a1.9,1.9,0,0,1-2.147-1.854c0-.971.4-1.412,1.665-1.81l2.06-.662Z" fill="#fff"/>
    <path id="Union_3" data-name="Union 3" d="M256.947,83.492a.909.909,0,0,1,.94-.972c.626,0,.795,1.287,2.723,1.287,1.614,0,2.433-.824,2.433-2.015,0-2.572-4.962-2.378-4.962-5.606,0-1.869,1.542-3.447,4.288-3.447,1.83,0,2.914.777,2.914,1.53a.907.907,0,0,1-.94.97c-.626,0-.795-1.238-2.529-1.238-1.348,0-2.047.7-2.047,1.749,0,2.451,4.963,2.256,4.963,5.607,0,2.014-1.687,3.713-4.746,3.713C258.007,85.07,256.947,84.293,256.947,83.492Zm-27.105-3.01c0-4.539,3.108-7.743,6.77-7.743a4.231,4.231,0,0,1,4.553,4.587c0,4.539-3.108,7.744-6.77,7.744A4.231,4.231,0,0,1,229.842,80.482Zm1.831-.316c0,2.307,1.254,3.568,3.037,3.568,3.18,0,4.625-3.131,4.625-6.092,0-2.306-1.254-3.569-3.037-3.569C233.118,74.074,231.673,77.206,231.673,80.166ZM202.159,81.7a43.034,43.034,0,0,1,1.181-7.305l-1.372-.22c-.289-.048-.458-.145-.458-.437s.169-.509.7-.655a6.724,6.724,0,0,1,1.71-.218c.891,0,1.325.338,1.18,1.237a60.841,60.841,0,0,0-1.108,7.063c0,1.8.747,2.549,2.023,2.549a5.063,5.063,0,0,0,3.613-2.063l1.349-7.962a.963.963,0,0,1,1.036-.824c.554,0,.771.291.675.824l-1.518,8.86c-.144.849.169,1.044.578,1.044s.675-.219.94-.219a.369.369,0,0,1,.409.411c0,.584-.891,1.19-2,1.19-1.156,0-1.759-.7-1.566-1.966l-.048-.023a4.892,4.892,0,0,1-4.071,2.087A3.064,3.064,0,0,1,202.159,81.7Zm-20.744-1.214c0-4.539,3.109-7.743,6.77-7.743a4.23,4.23,0,0,1,4.552,4.587c0,4.539-3.107,7.744-6.769,7.744A4.231,4.231,0,0,1,181.415,80.482Zm1.831-.316c0,2.307,1.253,3.568,3.036,3.568,3.179,0,4.625-3.131,4.625-6.092,0-2.306-1.253-3.569-3.036-3.569C184.691,74.074,183.246,77.206,183.246,80.166Zm-14.288,4.029c-.217-.29-.217-.534-.023-1.771.12-.728.192-1.093.312-1.627.1-.461.289-.606.6-.606.338,0,.506.17.53.606l.144,2.308a4.74,4.74,0,0,0,2.819.607c2.554,0,3.831-1.287,3.831-3.035,0-3.883-6.746-3.325-6.746-7.815,0-2.5,2.048-4.563,5.9-4.563,2.1,0,3.326.411,3.638.8.218.292.218.534.024,1.771-.12.728-.169,1-.289,1.529-.1.463-.313.607-.6.607-.338,0-.506-.194-.53-.631l-.145-2.185a4.718,4.718,0,0,0-2.625-.533c-2.336,0-3.566,1.237-3.566,2.694,0,3.762,6.745,3.2,6.745,7.815,0,2.719-2.168,4.9-6.168,4.9C170.476,85.07,169.272,84.584,168.959,84.195Zm82.518-.776c0-1.383.964-5.073.964-6.772,0-1.8-.747-2.548-2.024-2.548a5.063,5.063,0,0,0-3.613,2.063l-1.349,7.961a.965.965,0,0,1-1.036.825c-.554,0-.771-.293-.675-.825l1.662-9.733-1.373-.22c-.289-.048-.457-.145-.457-.437s.168-.509.7-.655a6.736,6.736,0,0,1,1.711-.218c.842,0,1.108.315,1.108.873A4.919,4.919,0,0,1,246.9,74.8l.049.025a4.89,4.89,0,0,1,4.07-2.088,3.063,3.063,0,0,1,3.252,3.374c0,1.942-1.058,5.607-1.058,6.82,0,.486.265.656.625.656.41,0,.675-.219.941-.219a.369.369,0,0,1,.409.411c0,.584-.916,1.19-2.071,1.19C251.935,84.972,251.477,84.366,251.477,83.419Zm-27.562-.7,1.422-8.326-1.373-.22c-.289-.048-.457-.145-.457-.437s.168-.509.7-.655a6.736,6.736,0,0,1,1.711-.218c.891,0,1.325.338,1.18,1.237l-1.445,8.447c-.145.849.169,1.044.578,1.044s.675-.219.941-.219a.369.369,0,0,1,.409.411c0,.584-.915,1.19-2.1,1.19S223.626,84.39,223.915,82.716Zm-7.709-.729,1.325-7.768h-1.205c-.457,0-.626-.169-.626-.509a.751.751,0,0,1,.842-.752h1.2l.6-1.894c.313-1.019.65-1.334,1.108-1.334.361,0,.53.193.434.7l-.434,2.524h2.529c.458,0,.627.17.627.509a.752.752,0,0,1-.843.752h-2.53l-1.276,7.5c-.242,1.457.048,1.893,1.107,1.893a9.66,9.66,0,0,0,1.471-.291.357.357,0,0,1,.386.389c0,.558-.988,1.261-2.531,1.261C216.423,84.972,215.893,83.759,216.206,81.987Zm-21.034,1.455a4.072,4.072,0,0,1,.072-.726l2.385-13.933-1.373-.219c-.289-.049-.457-.146-.457-.437s.168-.509.7-.655a6.774,6.774,0,0,1,1.71-.218c.843,0,1.205.316,1.205.922a3.067,3.067,0,0,1-.048.461l-2.385,13.909c-.146.849.167,1.044.578,1.044s.674-.219.939-.219a.37.37,0,0,1,.41.411c0,.584-.915,1.19-2.1,1.19C195.823,84.972,195.172,84.56,195.172,83.443Zm30.5-14.175a1.373,1.373,0,0,1,1.4-1.407,1.193,1.193,0,0,1,1.253,1.262,1.355,1.355,0,0,1-1.373,1.408A1.212,1.212,0,0,1,225.674,69.268Z" fill="#44627a"/>
  </g>
</svg>
