<?xml version="1.0" encoding="iso-8859-1"?>
<!-- Uploaded to: SVG Repo, www.svgrepo.com, Generator: SVG Repo Mixer Tools -->
<svg height="800px" width="800px" version="1.1" id="Layer_1" xmlns="http://www.w3.org/2000/svg" xmlns:xlink="http://www.w3.org/1999/xlink" 
	 viewBox="0 0 512 512" xml:space="preserve">
<path style="fill:#FE9528;" d="M256,0v101.275c27.966,0,50.637-22.671,50.637-50.637S283.966,0,256,0z"/>
<path style="fill:#FEC14D;" d="M272.879,50.637C272.879,22.671,265.322,0,256,0c-27.966,0-50.637,22.671-50.637,50.637
	s22.671,50.637,50.637,50.637C265.322,101.275,272.879,78.604,272.879,50.637z"/>
<path style="fill:#4D392F;" d="M460.8,122.343c-3.232,0-6.18-1.847-7.592-4.753c-2.799-5.765-8.513-9.345-14.913-9.345
	c-4.662,0-8.44-3.778-8.44-8.44s3.778-8.44,8.44-8.44c8.415,0,16.432,3.237,22.505,8.742c6.073-5.505,14.091-8.742,22.505-8.742
	c4.662,0,8.44,3.778,8.44,8.44s-3.778,8.44-8.44,8.44c-6.401,0-12.115,3.581-14.913,9.345
	C466.98,120.497,464.032,122.343,460.8,122.343z"/>
<path style="fill:#59473C;" d="M51.2,88.585c-3.232,0-6.18-1.847-7.592-4.753c-2.799-5.765-8.513-9.345-14.913-9.345
	c-4.662,0-8.44-3.778-8.44-8.44c0-4.662,3.778-8.44,8.44-8.44c8.415,0,16.432,3.237,22.505,8.742
	c6.073-5.505,14.091-8.742,22.505-8.742c4.662,0,8.44,3.778,8.44,8.44c0,4.662-3.778,8.44-8.44,8.44
	c-6.401,0-12.115,3.581-14.913,9.345C57.38,86.738,54.432,88.585,51.2,88.585z"/>
<path style="fill:#4D392F;" d="M153.6,136.44c-3.232,0-6.18-1.847-7.592-4.753c-2.797-5.764-8.513-9.344-14.913-9.344
	c-4.662,0-8.44-3.778-8.44-8.44s3.778-8.44,8.44-8.44c8.415,0,16.432,3.236,22.505,8.742c6.073-5.506,14.091-8.742,22.505-8.742
	c4.662,0,8.44,3.778,8.44,8.44s-3.778,8.44-8.44,8.44c-6.401,0-12.116,3.581-14.913,9.344
	C159.78,134.593,156.832,136.44,153.6,136.44z"/>
<path style="fill:#4B8D8F;" d="M512,174.418c-9.219,18.983-28.68,32.07-51.2,32.07l-33.758,111.965L460.8,430.418l51.2-55.138
	V174.418z"/>
<path style="fill:#63ABA1;" d="M409.6,174.418c-9.218,18.982-28.68,32.07-51.2,32.07c-22.52,0-41.982-13.088-51.2-32.07
	c-9.218,18.982-28.68,32.07-51.2,32.07c-22.52,0-41.982-13.088-51.2-32.07c-9.218,18.982-28.68,32.07-51.2,32.07
	s-41.982-13.088-51.2-32.07c-9.218,18.982-28.68,32.07-51.2,32.07S9.219,193.401,0,174.418v133.345l460.8,122.655v-223.93
	C438.28,206.488,418.818,193.4,409.6,174.418z"/>
<g>
	<path style="fill:#FFFFFF;" d="M162.04,265.565H145.16c-4.662,0-8.44-3.778-8.44-8.44c0-4.662,3.778-8.44,8.44-8.44h16.879
		c4.662,0,8.44,3.778,8.44,8.44C170.479,261.787,166.702,265.565,162.04,265.565z"/>
	<path style="fill:#FFFFFF;" d="M366.84,316.202H349.96c-4.662,0-8.44-3.778-8.44-8.44s3.778-8.44,8.44-8.44h16.879
		c4.662,0,8.44,3.778,8.44,8.44S371.502,316.202,366.84,316.202z"/>
	<path style="fill:#FFFFFF;" d="M418.04,282.444H401.16c-4.662,0-8.44-3.778-8.44-8.44c0-4.662,3.778-8.44,8.44-8.44h16.879
		c4.662,0,8.44,3.778,8.44,8.44C426.479,278.666,422.702,282.444,418.04,282.444z"/>
</g>
<path style="fill:#FFE0A2;" d="M512,375.279c0,0-13.262,0-33.758,0l-22.505,78.769L512,420.29V375.279z"/>
<path style="fill:#FFEDC6;" d="M256,375.279c-18.645,0-33.758-15.115-33.758-33.758c0-18.645-15.114-33.758-33.758-33.758
	S0,307.763,0,307.763v45.011l217.016,101.275h261.226v-78.769H256z"/>
<polygon style="fill:#FFA850;" points="478.242,420.29 444.484,466.145 478.242,512 512,512 512,420.29 "/>
<path style="fill:#FEC14D;" d="M256,420.29c-26.712,0-50.362-13.366-64.611-33.76c-6.883-9.851-11.572-21.341-13.357-33.756H0V512
	h478.242v-91.71H256z"/>
<g>
	<circle style="fill:#FE9528;" cx="75.956" cy="436.044" r="8.44"/>
	<circle style="fill:#FE9528;" cx="42.198" cy="469.802" r="8.44"/>
	<circle style="fill:#FE9528;" cx="436.044" cy="469.802" r="8.44"/>
</g>
</svg>