<?xml version="1.0" encoding="iso-8859-1"?>
<!-- Uploaded to: SVG Repo, www.svgrepo.com, Generator: SVG Repo Mixer Tools -->
<svg version="1.1" id="Layer_1" xmlns="http://www.w3.org/2000/svg" xmlns:xlink="http://www.w3.org/1999/xlink" 
	 viewBox="0 0 512 512" xml:space="preserve">
<g>
	<rect x="452.36" y="115.341" style="fill:#875B51;" width="16.879" height="56.264"/>
	<rect x="178.919" y="115.341" style="fill:#875B51;" width="16.879" height="56.264"/>
	<rect x="42.76" y="115.341" style="fill:#875B51;" width="16.879" height="56.264"/>
</g>
<polygon style="fill:#AAC36D;" points="512,512 0,512 0,264.44 22.505,230.681 0,196.923 0,163.165 512,163.165 512,298.198 
	489.495,348.835 512,399.473 512,433.231 489.495,455.596 512,478.242 "/>
<polygon style="fill:#55B9D3;" points="512,298.198 512,323.517 500.747,332.144 512,340.396 512,357.275 500.747,365.526 
	512,374.154 512,399.473 478.242,399.473 433.231,348.835 478.242,298.198 "/>
<path style="fill:#8CE6FE;" d="M478.242,298.198v101.275H208.176c-27.963,0-50.637-22.674-50.637-50.637
	c0-27.963,22.674-50.637,50.637-50.637H478.242z"/>
<path style="fill:#55B9D3;" d="M202.549,196.923h-33.758v67.516h33.758c18.646,0,33.758-15.112,33.758-33.758
	S221.195,196.923,202.549,196.923z"/>
<path style="fill:#8CE6FE;" d="M168.791,196.923c18.646,0,33.758,15.112,33.758,33.758s-15.112,33.758-33.758,33.758H0v-25.319
	l11.253-9.001L0,222.243v-25.32H168.791z"/>
<path style="fill:#55B9D3;" d="M444.484,196.923h-33.758v67.516h33.758c18.646,0,33.758-15.112,33.758-33.758
	S463.129,196.923,444.484,196.923z"/>
<path style="fill:#8CE6FE;" d="M410.725,196.923c18.646,0,33.758,15.112,33.758,33.758s-15.112,33.758-33.758,33.758H303.824
	c-18.646,0-33.758-15.112-33.758-33.758s15.112-33.758,33.758-33.758H410.725z"/>
<path style="fill:#55B9D3;" d="M78.769,298.198H45.011v45.011h33.758c12.434,0,22.505-10.071,22.505-22.505
	S91.204,298.198,78.769,298.198z"/>
<path style="fill:#8CE6FE;" d="M45.011,298.198c12.434,0,22.505,10.071,22.505,22.505s-10.071,22.505-22.505,22.505H22.505
	C10.071,343.209,0,333.138,0,320.703s10.071-22.505,22.505-22.505H45.011z"/>
<path style="fill:#55B9D3;" d="M512,433.231v45.011l-33.758-0.022l-22.505-22.624l22.505-22.365
	C478.242,433.208,512,433.231,512,433.231z"/>
<path style="fill:#8CE6FE;" d="M478.242,433.231v44.988l-219.429-0.113c-12.434,0-22.505-10.082-22.505-22.505
	c0-12.434,10.071-22.505,22.505-22.505C258.813,433.096,478.242,433.208,478.242,433.231z"/>
<polygon style="fill:#AAC36D;" points="460.8,0 512,123.78 460.8,123.78 449.547,81.582 "/>
<polygon style="fill:#CAED73;" points="460.8,0 460.8,123.78 409.6,123.78 "/>
<g>
	<path style="fill:#FFFFFF;" d="M309.451,323.517c-4.662,0-8.44,3.779-8.44,8.44s3.778,8.44,8.44,8.44H512v-16.879H309.451z"/>
	<path style="fill:#FFFFFF;" d="M275.692,340.396h-67.516c-4.661,0-8.44-3.779-8.44-8.44s3.779-8.44,8.44-8.44h67.516
		c4.662,0,8.44,3.779,8.44,8.44S280.354,340.396,275.692,340.396z"/>
	<path style="fill:#FFFFFF;" d="M388.22,357.275c-4.662,0-8.44,3.779-8.44,8.44s3.778,8.44,8.44,8.44H512v-16.879H388.22z"/>
	<path style="fill:#FFFFFF;" d="M135.033,222.242H0v16.879h135.033c4.661,0,8.44-3.779,8.44-8.44
		C143.473,226.02,139.694,222.242,135.033,222.242z"/>
</g>
<polygon style="fill:#AAC36D;" points="51.2,0 102.4,123.78 51.2,123.78 39.947,81.582 "/>
<polygon style="fill:#CAED73;" points="51.2,0 51.2,123.78 0,123.78 "/>
<polygon style="fill:#AAC36D;" points="187.358,0 238.558,123.78 187.358,123.78 176.105,81.582 "/>
<polygon style="fill:#CAED73;" points="187.358,0 187.358,123.78 136.158,123.78 "/>
</svg>