<?xml version="1.0" encoding="iso-8859-1"?>
<!-- Uploaded to: SVG Repo, www.svgrepo.com, Generator: SVG Repo Mixer Tools -->
<svg version="1.1" id="Layer_1" xmlns="http://www.w3.org/2000/svg" xmlns:xlink="http://www.w3.org/1999/xlink" 
	 viewBox="0 0 512 512" xml:space="preserve">
<polygon style="fill:#FFA850;" points="473.668,401.112 451.765,453.134 473.668,505.155 506.524,505.155 506.524,401.112 "/>
<rect x="8.214" y="401.112" style="fill:#FEC14D;" width="465.455" height="104.043"/>
<g>
	<circle style="fill:#FE9528;" cx="292.963" cy="436.706" r="8.214"/>
	<circle style="fill:#FE9528;" cx="325.818" cy="469.561" r="8.214"/>
	<circle style="fill:#FE9528;" cx="49.283" cy="442.182" r="8.214"/>
	<circle style="fill:#FE9528;" cx="465.455" cy="464.086" r="8.214"/>
</g>
<path style="fill:#E86C16;" d="M257.369,6.845v98.567c27.219,0,49.283-22.065,49.283-49.283S284.588,6.845,257.369,6.845z"/>
<path style="fill:#FE9528;" d="M273.797,56.128c0-27.219-7.355-49.283-16.428-49.283c-27.219,0-49.283,22.065-49.283,49.283
	s22.065,49.283,49.283,49.283C266.442,105.412,273.797,83.347,273.797,56.128z"/>
<g>
	<path style="fill:#FFE0A2;" d="M443.551,121.84c-4.537,0-8.214,3.677-8.214,8.214c0,4.537,3.677,8.214,8.214,8.214h21.904V121.84
		H443.551z"/>
	<path style="fill:#FFE0A2;" d="M503.786,171.123h-21.904v16.428h21.904c4.537,0,8.214-3.677,8.214-8.214
		S508.323,171.123,503.786,171.123z"/>
	<path style="fill:#FFE0A2;" d="M503.786,138.267h-21.904v16.428h21.904c4.537,0,8.214-3.677,8.214-8.214
		C512,141.944,508.323,138.267,503.786,138.267z"/>
	<path style="fill:#FFE0A2;" d="M416.171,34.225h-21.904v16.428h21.904c4.537,0,8.214-3.677,8.214-8.214
		S420.708,34.225,416.171,34.225z"/>
	<path style="fill:#FFE0A2;" d="M355.936,50.652c-4.537,0-8.214,3.677-8.214,8.214s3.677,8.214,8.214,8.214h21.904V50.652H355.936z"
		/>
	<path style="fill:#FFE0A2;" d="M328.556,209.455h-21.904v16.428h21.904c4.537,0,8.214-3.677,8.214-8.214
		S333.094,209.455,328.556,209.455z"/>
	<path style="fill:#FFE0A2;" d="M268.321,209.455c-4.537,0-8.214,3.677-8.214,8.214s3.677,8.214,8.214,8.214h21.904v-16.428H268.321
		z"/>
	<path style="fill:#FFE0A2;" d="M268.321,242.31c-4.537,0-8.214,3.677-8.214,8.214c0,4.537,3.677,8.214,8.214,8.214h21.904V242.31
		H268.321z"/>
	<path style="fill:#FFE0A2;" d="M68.449,209.455H46.545v16.428h21.904c4.537,0,8.214-3.677,8.214-8.214
		S72.987,209.455,68.449,209.455z"/>
	<path style="fill:#FFE0A2;" d="M8.214,258.738c-4.537,0-8.214,3.677-8.214,8.214c0,4.537,3.677,8.214,8.214,8.214h21.904v-16.428
		H8.214z"/>
	<path style="fill:#FFE0A2;" d="M8.214,225.882c-4.537,0-8.214,3.677-8.214,8.214c0,4.537,3.677,8.214,8.214,8.214h21.904v-16.428
		H8.214z"/>
	<path style="fill:#FFE0A2;" d="M95.829,121.84c-4.537,0-8.214,3.677-8.214,8.214c0,4.537,3.677,8.214,8.214,8.214h21.904V121.84
		H95.829z"/>
	<path style="fill:#FFE0A2;" d="M156.064,138.267H134.16v16.428h21.904c4.537,0,8.214-3.677,8.214-8.214
		C164.278,141.944,160.602,138.267,156.064,138.267z"/>
	<path style="fill:#FFE0A2;" d="M156.064,171.123H134.16v16.428h21.904c4.537,0,8.214-3.677,8.214-8.214
		S160.602,171.123,156.064,171.123z"/>
	<path style="fill:#FFE0A2;" d="M183.444,297.07c-4.537,0-8.214,3.677-8.214,8.214c0,4.537,3.677,8.214,8.214,8.214h21.904V297.07
		H183.444z"/>
	<path style="fill:#FFE0A2;" d="M243.679,297.07h-21.904v16.428h21.904c4.537,0,8.214-3.677,8.214-8.214
		C251.893,300.746,248.217,297.07,243.679,297.07z"/>
	<path style="fill:#FFE0A2;" d="M243.679,329.925h-21.904v16.428h21.904c4.537,0,8.214-3.677,8.214-8.214
		C251.893,333.602,248.217,329.925,243.679,329.925z"/>
</g>
<path style="fill:#69744A;" d="M473.668,94.46c-10.585,0-19.166,8.581-19.166,19.166v90.353c0,12.078-9.826,21.904-21.904,21.904
	h-38.332v38.332h38.332c33.214,0,60.235-27.022,60.235-60.235v-90.353C492.834,103.041,484.253,94.46,473.668,94.46z"/>
<path style="fill:#7F9058;" d="M386.053,6.845c-10.585,0-19.166,8.581-19.166,19.166v287.487h-27.38
	c-12.078,0-21.904-9.826-21.904-21.904v-90.353c0-10.585-8.581-19.166-19.166-19.166s-19.166,8.581-19.166,19.166v90.353
	c0,33.214,27.022,60.235,60.235,60.235h27.38v153.326h38.332V26.011C405.219,15.426,396.638,6.845,386.053,6.845z"/>
<path style="fill:#69744A;" d="M213.562,269.69c-10.585,0-19.166,8.581-19.166,19.166v90.353c0,12.078-9.826,21.904-21.904,21.904
	h-49.283v38.332h49.283c33.214,0,60.235-27.022,60.235-60.235v-90.353C232.727,278.271,224.146,269.69,213.562,269.69z"/>
<path style="fill:#7F9058;" d="M125.947,94.46c-10.585,0-19.166,8.581-19.166,19.166v199.872h-27.38
	c-12.078,0-21.904-9.826-21.904-21.904v-90.353c0-10.585-8.581-19.166-19.166-19.166s-19.166,8.581-19.166,19.166v90.353
	c0,33.214,27.022,60.235,60.235,60.235h27.38v153.326h38.332V113.626C145.112,103.041,136.532,94.46,125.947,94.46z"/>
</svg>