<?xml version="1.0" encoding="iso-8859-1"?>
<!-- Uploaded to: SVG Repo, www.svgrepo.com, Generator: SVG Repo Mixer Tools -->
<svg height="800px" width="800px" version="1.1" id="Layer_1" xmlns="http://www.w3.org/2000/svg" xmlns:xlink="http://www.w3.org/1999/xlink" 
	 viewBox="0 0 512 512" xml:space="preserve">
<path style="fill:#FE9528;" d="M474.638,336.689C255.466,323.71,244.413,182.659,4.151,182.659v154.982l470.487,141.148V336.689z"/>
<g>
	<circle style="fill:#FEC14D;" cx="45.665" cy="225.191" r="8.303"/>
	<circle style="fill:#FEC14D;" cx="78.876" cy="258.402" r="8.303"/>
</g>
<path style="fill:#FFA850;" d="M474.638,183.616l-33.211,164.192L474.638,512h33.211V182.659
	C496.26,182.659,485.209,182.99,474.638,183.616z"/>
<path style="fill:#FEC14D;" d="M4.151,337.643V512h470.487V183.616C255.471,196.597,244.412,337.643,4.151,337.643z"/>
<g>
	<circle style="fill:#FE9528;" cx="399.914" cy="437.276" r="8.303"/>
	<circle style="fill:#FE9528;" cx="433.124" cy="470.487" r="8.303"/>
	<circle style="fill:#FE9528;" cx="466.335" cy="258.402" r="8.303"/>
	<circle style="fill:#FE9528;" cx="78.876" cy="437.276" r="8.303"/>
</g>
<path style="fill:#E86C16;" d="M256,41.514v99.632c27.513,0,49.816-22.303,49.816-49.816S283.513,41.514,256,41.514z"/>
<g>
	<path style="fill:#FE9528;" d="M272.605,91.33c0-27.513-7.435-49.816-16.605-49.816c-27.513,0-49.816,22.303-49.816,49.816
		s22.303,49.816,49.816,49.816C265.171,141.146,272.605,118.843,272.605,91.33z"/>
	<path style="fill:#FE9528;" d="M325.253,145.411c-1.574,0-3.165-0.447-4.576-1.382c-3.824-2.532-4.87-7.683-2.338-11.506
		c8.102-12.237,12.385-26.481,12.385-41.194c0-41.204-33.521-74.724-74.724-74.724c-35.399,0-66.195,25.137-73.227,59.771
		c-0.912,4.495-5.296,7.397-9.788,6.484c-4.495-0.911-7.397-5.294-6.484-9.788C175.096,30.732,212.736,0,256,0
		c50.359,0,91.33,40.971,91.33,91.33c0,17.984-5.237,35.398-15.147,50.361C330.586,144.104,327.945,145.411,325.253,145.411z"/>
	<path style="fill:#FE9528;" d="M256,182.659c-43.264,0-80.904-30.732-89.5-73.073c-0.912-4.495,1.99-8.877,6.484-9.788
		c4.492-0.916,8.877,1.992,9.788,6.484c7.033,34.634,37.828,59.772,73.228,59.772c14.712,0,28.957-4.283,41.194-12.385
		c3.82-2.531,8.974-1.486,11.506,2.338c2.532,3.823,1.486,8.974-2.338,11.506C291.398,177.422,273.984,182.659,256,182.659z"/>
</g>
</svg>