<?xml version="1.0" encoding="iso-8859-1"?>
<!-- Uploaded to: SVG Repo, www.svgrepo.com, Generator: SVG Repo Mixer Tools -->
<svg version="1.1" id="Layer_1" xmlns="http://www.w3.org/2000/svg" xmlns:xlink="http://www.w3.org/1999/xlink" 
	 viewBox="0 0 512 512" xml:space="preserve">
<g>
	<rect x="357.275" y="346.022" style="fill:#875B51;" width="16.879" height="84.396"/>
	<rect x="137.846" y="346.022" style="fill:#875B51;" width="16.879" height="84.396"/>
</g>
<polygon style="fill:#AAC36D;" points="512,421.978 512,512 478.242,512 444.484,466.989 478.242,421.978 "/>
<rect y="421.978" style="fill:#CAED73;" width="478.242" height="90.022"/>
<polygon style="fill:#AAC36D;" points="446.554,240.764 475.429,240.764 415.834,137.232 438.857,127.066 365.714,0 
	320.703,207.006 365.714,354.462 512,354.462 "/>
<polygon style="fill:#CAED73;" points="365.714,354.462 219.429,354.462 284.875,240.764 256,240.764 321.446,127.066 
	292.571,127.066 365.714,0 "/>
<polygon style="fill:#7F9058;" points="227.125,240.764 256,240.764 196.405,137.232 219.429,127.066 146.286,0 112.527,207.006 
	146.286,354.462 292.571,354.462 "/>
<polygon style="fill:#95AC66;" points="146.286,354.462 0,354.462 65.446,240.764 36.571,240.764 102.017,127.066 73.143,127.066 
	146.286,0 "/>
<path style="fill:#7F9058;" d="M112.527,282.964c-4.661,0-8.44-3.779-8.44-8.44v-11.253c0-4.661,3.779-8.44,8.44-8.44
	c4.661,0,8.44,3.779,8.44,8.44v11.253C120.967,279.185,117.188,282.964,112.527,282.964z"/>
<path style="fill:#95AC66;" d="M180.044,249.206c-4.661,0-8.44-3.779-8.44-8.44v-11.253c0-4.661,3.779-8.44,8.44-8.44
	s8.44,3.779,8.44,8.44v11.253C188.484,245.427,184.705,249.206,180.044,249.206z"/>
<path style="fill:#AAC36D;" d="M331.956,210.989c-4.661,0-8.44-3.779-8.44-8.44v-11.253c0-4.661,3.779-8.44,8.44-8.44
	s8.44,3.779,8.44,8.44v11.253C340.396,207.21,336.617,210.989,331.956,210.989z"/>
<path style="fill:#7F9058;" d="M399.473,301.011c-4.661,0-8.44-3.779-8.44-8.44v-11.253c0-4.661,3.779-8.44,8.44-8.44
	s8.44,3.779,8.44,8.44v11.253C407.912,297.232,404.133,301.011,399.473,301.011z"/>
<g>
	<path style="fill:#AAC36D;" d="M33.758,469.802c-4.661,0-8.44-3.779-8.44-8.44V450.11c0-4.661,3.779-8.44,8.44-8.44
		s8.44,3.779,8.44,8.44v11.253C42.198,466.024,38.419,469.802,33.758,469.802z"/>
	<path style="fill:#AAC36D;" d="M67.516,492.308c-4.661,0-8.44-3.779-8.44-8.44v-11.253c0-4.661,3.779-8.44,8.44-8.44
		s8.44,3.779,8.44,8.44v11.253C75.956,488.529,72.177,492.308,67.516,492.308z"/>
</g>
<g>
	<path style="fill:#95AC66;" d="M101.275,481.055c-4.661,0-8.44-3.779-8.44-8.44v-11.253c0-4.661,3.779-8.44,8.44-8.44
		c4.661,0,8.44,3.779,8.44,8.44v11.253C109.714,477.276,105.936,481.055,101.275,481.055z"/>
	<path style="fill:#95AC66;" d="M447.297,469.802c-4.661,0-8.44-3.779-8.44-8.44V450.11c0-4.661,3.779-8.44,8.44-8.44
		s8.44,3.779,8.44,8.44v11.253C455.736,466.024,451.958,469.802,447.297,469.802z"/>
</g>
<g>
	<path style="fill:#AAC36D;" d="M320.703,492.308c-4.661,0-8.44-3.779-8.44-8.44v-11.253c0-4.661,3.779-8.44,8.44-8.44
		s8.44,3.779,8.44,8.44v11.253C329.143,488.529,325.364,492.308,320.703,492.308z"/>
	<path style="fill:#AAC36D;" d="M354.462,492.308c-4.661,0-8.44-3.779-8.44-8.44v-11.253c0-4.661,3.779-8.44,8.44-8.44
		s8.44,3.779,8.44,8.44v11.253C362.901,488.529,359.122,492.308,354.462,492.308z"/>
	<path style="fill:#AAC36D;" d="M196.923,492.308c-4.661,0-8.44-3.779-8.44-8.44v-11.253c0-4.661,3.779-8.44,8.44-8.44
		c4.661,0,8.44,3.779,8.44,8.44v11.253C205.363,488.529,201.584,492.308,196.923,492.308z"/>
</g>
</svg>