<?xml version="1.0" encoding="iso-8859-1"?>
<!-- Uploaded to: SVG Repo, www.svgrepo.com, Generator: SVG Repo Mixer Tools -->
<svg version="1.1" id="Layer_1" xmlns="http://www.w3.org/2000/svg" xmlns:xlink="http://www.w3.org/1999/xlink" 
	 viewBox="0 0 512 512" xml:space="preserve">
<g>
	<rect x="334.769" y="166.316" style="fill:#FD8300;" width="16.879" height="50.637"/>
	<rect x="59.077" y="139.163" style="fill:#FD8300;" width="16.879" height="50.637"/>
	<rect x="436.044" y="139.163" style="fill:#FD8300;" width="16.879" height="50.637"/>
</g>
<path style="fill:#63ABA1;" d="M343.209,50.978l-11.253,61.89l11.253,61.89c18.645,0,33.758-15.114,33.758-33.758V84.737
	C376.967,66.092,361.853,50.978,343.209,50.978z"/>
<path style="fill:#83C49A;" d="M309.451,84.737V141c0,18.645,15.114,33.758,33.758,33.758V50.978
	C324.564,50.978,309.451,66.092,309.451,84.737z"/>
<path style="fill:#FE9528;" d="M205.363,0v101.275c27.966,0,50.637-22.671,50.637-50.637S233.329,0,205.363,0z"/>
<path style="fill:#FEC14D;" d="M222.242,50.637C222.242,22.671,214.684,0,205.363,0c-27.966,0-50.637,22.671-50.637,50.637
	s22.671,50.637,50.637,50.637C214.684,101.275,222.242,78.604,222.242,50.637z"/>
<path style="fill:#63ABA1;" d="M67.516,23.824l-11.253,61.89l11.253,61.89c18.645,0,33.758-15.114,33.758-33.758V57.583
	C101.275,38.939,86.161,23.824,67.516,23.824z"/>
<path style="fill:#83C49A;" d="M33.758,57.583v56.264c0,18.645,15.114,33.758,33.758,33.758V23.824
	C48.872,23.824,33.758,38.939,33.758,57.583z"/>
<path style="fill:#CAED73;" d="M478.242,333.799C255.458,320.607,244.222,177.231,0,177.231v157.536l478.242,143.475V333.799z"/>
<path style="fill:#83C49A;" d="M478.242,178.203l-33.758,166.899L478.242,512H512V177.231
	C500.221,177.231,488.987,177.567,478.242,178.203z"/>
<path style="fill:#A3DC93;" d="M0,334.769V512h478.242V178.203C255.462,191.398,244.221,334.769,0,334.769z"/>
<g>
	<path style="fill:#83C49A;" d="M66.954,452.923c-4.662,0-8.44-3.778-8.44-8.44v-11.253c0-4.662,3.778-8.44,8.44-8.44
		s8.44,3.778,8.44,8.44v11.253C75.393,449.146,71.616,452.923,66.954,452.923z"/>
	<path style="fill:#83C49A;" d="M308.888,351.648c-4.662,0-8.44-3.778-8.44-8.44v-11.253c0-4.662,3.778-8.44,8.44-8.44
		s8.44,3.778,8.44,8.44v11.253C317.327,347.871,313.55,351.648,308.888,351.648z"/>
	<path style="fill:#83C49A;" d="M443.921,419.165c-4.662,0-8.44-3.778-8.44-8.44v-11.253c0-4.662,3.778-8.44,8.44-8.44
		s8.44,3.778,8.44,8.44v11.253C452.36,415.387,448.583,419.165,443.921,419.165z"/>
	<path style="fill:#83C49A;" d="M410.163,452.923c-4.662,0-8.44-3.778-8.44-8.44v-11.253c0-4.662,3.778-8.44,8.44-8.44
		s8.44,3.778,8.44,8.44v11.253C418.602,449.146,414.825,452.923,410.163,452.923z"/>
	<path style="fill:#83C49A;" d="M134.47,486.681c-4.662,0-8.44-3.778-8.44-8.44v-11.253c0-4.662,3.778-8.44,8.44-8.44
		c4.662,0,8.44,3.778,8.44,8.44v11.253C142.91,482.904,139.132,486.681,134.47,486.681z"/>
</g>
<path style="fill:#63ABA1;" d="M444.484,23.827l-11.253,61.89l11.253,61.89c18.645,0,33.758-15.114,33.758-33.758V57.585
	C478.242,38.94,463.128,23.827,444.484,23.827z"/>
<path style="fill:#83C49A;" d="M410.725,57.585v56.264c0,18.645,15.114,33.758,33.758,33.758V23.827
	C425.839,23.827,410.725,38.94,410.725,57.585z"/>
</svg>