<?xml version="1.0" encoding="iso-8859-1"?>
<!-- Uploaded to: SVG Repo, www.svgrepo.com, Generator: SVG Repo Mixer Tools -->
<svg version="1.1" id="Layer_1" xmlns="http://www.w3.org/2000/svg" xmlns:xlink="http://www.w3.org/1999/xlink" 
	 viewBox="0 0 512 512" xml:space="preserve">
<path style="fill:#4B8D8F;" d="M512,0c-9.219,18.983-28.68,32.07-51.2,32.07l-33.758,111.965L460.8,256l51.2-55.138V0z"/>
<path style="fill:#63ABA1;" d="M409.6,0c-9.218,18.982-28.68,32.07-51.2,32.07c-22.52,0-41.982-13.088-51.2-32.07
	c-9.218,18.982-28.68,32.07-51.2,32.07c-22.52,0-41.982-13.088-51.2-32.07c-9.218,18.982-28.68,32.07-51.2,32.07
	S111.618,18.982,102.4,0c-9.218,18.982-28.68,32.07-51.2,32.07S9.219,18.983,0,0v200.862L460.8,256V32.07
	C438.28,32.07,418.818,18.982,409.6,0z"/>
<path style="fill:#FFE0A2;" d="M512,200.862c0,0-13.262,0-33.758,0l-22.505,78.769L512,245.873V200.862z"/>
<polygon style="fill:#FFFFFF;" points="478.242,200.862 478.242,279.631 217.016,313.389 0,245.873 0,200.862 "/>
<polygon style="fill:#FFA850;" points="478.242,245.873 444.484,291.727 478.242,337.582 512,337.582 512,245.873 "/>
<rect y="245.873" style="fill:#FFEDC6;" width="478.242" height="91.71"/>
<g>
	<path style="fill:#FFFFFF;" d="M162.04,91.147H145.16c-4.661,0-8.44-3.779-8.44-8.44s3.779-8.44,8.44-8.44h16.879
		c4.661,0,8.44,3.779,8.44,8.44S166.7,91.147,162.04,91.147z"/>
	<path style="fill:#FFFFFF;" d="M366.84,141.785H349.96c-4.661,0-8.44-3.779-8.44-8.44s3.779-8.44,8.44-8.44h16.879
		c4.661,0,8.44,3.779,8.44,8.44S371.5,141.785,366.84,141.785z"/>
	<path style="fill:#FFFFFF;" d="M418.04,108.026H401.16c-4.661,0-8.44-3.779-8.44-8.44c0-4.661,3.779-8.44,8.44-8.44h16.879
		c4.661,0,8.44,3.779,8.44,8.44C426.479,104.248,422.7,108.026,418.04,108.026z"/>
</g>
<path style="fill:#AAC36D;" d="M478.242,166.95l-33.758,166.899L478.242,512H512V165.978
	C500.221,165.978,488.987,166.314,478.242,166.95z"/>
<path style="fill:#BFDB74;" d="M0,323.517V512h144.729l8.44-11.253l8.44,11.253h154.426l8.438-11.253l8.44,11.253l91.878-0.102
	l8.441-11.15l8.44,11.15L478.242,512V166.95C255.462,180.145,244.221,323.517,0,323.517z"/>
<g>
	<path style="fill:#AAC36D;" d="M67.516,475.429c-4.661,0-8.44-3.779-8.44-8.44v-11.253c0-4.661,3.779-8.44,8.44-8.44
		s8.44,3.779,8.44,8.44v11.253C75.956,471.65,72.177,475.429,67.516,475.429z"/>
	<path style="fill:#AAC36D;" d="M33.758,441.67c-4.661,0-8.44-3.779-8.44-8.44v-11.253c0-4.661,3.779-8.44,8.44-8.44
		s8.44,3.779,8.44,8.44v11.253C42.198,437.892,38.419,441.67,33.758,441.67z"/>
	<path style="fill:#AAC36D;" d="M238.822,475.429c-4.661,0-8.44-3.779-8.44-8.44v-11.253c0-4.661,3.779-8.44,8.44-8.44
		s8.44,3.779,8.44,8.44v11.253C247.261,471.65,243.482,475.429,238.822,475.429z"/>
	<path style="fill:#AAC36D;" d="M436.044,306.637c-4.661,0-8.44-3.779-8.44-8.44v-11.253c0-4.661,3.779-8.44,8.44-8.44
		s8.44,3.779,8.44,8.44v11.253C444.484,302.859,440.705,306.637,436.044,306.637z"/>
	<path style="fill:#AAC36D;" d="M387.657,261.626c-4.661,0-8.44-3.779-8.44-8.44v-11.253c0-4.661,3.779-8.44,8.44-8.44
		s8.44,3.779,8.44,8.44v11.253C396.097,257.848,392.318,261.626,387.657,261.626z"/>
	<path style="fill:#AAC36D;" d="M353.899,295.385c-4.661,0-8.44-3.779-8.44-8.44v-11.253c0-4.661,3.779-8.44,8.44-8.44
		s8.44,3.779,8.44,8.44v11.253C362.338,291.606,358.56,295.385,353.899,295.385z"/>
</g>
<g>
	<rect x="424.791" y="455.928" style="fill:#7F9058;" width="16.879" height="55.968"/>
	<rect x="316.033" y="393.846" style="fill:#7F9058;" width="16.879" height="118.154"/>
	<rect x="144.733" y="443.595" style="fill:#7F9058;" width="16.879" height="68.404"/>
</g>
<path style="fill:#FD8300;" d="M478.242,427.604c0-8.98-7.01-16.305-15.855-16.823c3.961-7.933,1.125-17.667-6.65-22.157
	c-7.776-4.49-17.622-2.07-22.505,5.323l-11.253,33.657l11.253,33.657c4.884,7.393,14.73,9.812,22.505,5.323
	c7.776-4.49,10.611-14.223,6.65-22.157C471.231,443.91,478.242,436.584,478.242,427.604z"/>
<path style="fill:#FE9528;" d="M410.725,388.625c-7.776,4.49-10.6,14.223-6.639,22.157c-8.845,0.518-15.866,7.843-15.866,16.823
	c0,8.98,7.022,16.305,15.866,16.823c-3.961,7.933-1.137,17.667,6.639,22.157c7.776,4.49,17.633,2.07,22.506-5.323v-67.314
	C428.358,386.554,418.501,384.135,410.725,388.625z"/>
<path style="fill:#FD8300;" d="M369.485,371.443c0-8.98-7.01-16.305-15.855-16.823c3.961-7.933,1.125-17.667-6.65-22.157
	c-7.776-4.49-17.622-2.07-22.505,5.323l-11.253,33.657l11.253,33.657c4.884,7.393,14.73,9.812,22.505,5.323
	c7.776-4.49,10.611-14.223,6.65-22.157C362.475,387.748,369.485,380.423,369.485,371.443z"/>
<path style="fill:#FE9528;" d="M301.969,332.464c-7.776,4.49-10.6,14.224-6.639,22.157c-8.845,0.518-15.866,7.843-15.866,16.823
	s7.022,16.305,15.866,16.823c-3.961,7.933-1.137,17.667,6.639,22.157s17.633,2.07,22.505-5.323v-67.314
	C319.602,330.393,309.744,327.974,301.969,332.464z"/>
<path style="fill:#FD8300;" d="M198.18,416.454c0-8.98-7.01-16.305-15.855-16.823c3.961-7.933,1.125-17.667-6.65-22.157
	s-17.622-2.071-22.505,5.323l-11.253,33.657l11.253,33.657c4.884,7.393,14.73,9.812,22.505,5.323s10.611-14.223,6.65-22.157
	C191.17,432.759,198.18,425.434,198.18,416.454z"/>
<path style="fill:#FE9528;" d="M130.664,377.475c-7.776,4.49-10.6,14.223-6.639,22.157c-8.845,0.518-15.866,7.843-15.866,16.823
	s7.022,16.305,15.866,16.823c-3.961,7.933-1.137,17.667,6.639,22.157s17.633,2.071,22.506-5.323v-67.314
	C148.297,375.404,138.439,372.985,130.664,377.475z"/>
</svg>