<?xml version="1.0" encoding="iso-8859-1"?>
<!-- Uploaded to: SVG Repo, www.svgrepo.com, Generator: SVG Repo Mixer Tools -->
<svg version="1.1" id="Layer_1" xmlns="http://www.w3.org/2000/svg" xmlns:xlink="http://www.w3.org/1999/xlink" 
	 viewBox="0 0 512 512" xml:space="preserve">
<polygon style="fill:#7F9058;" points="296.157,221.769 227.044,118.478 226.842,118.613 197.242,110.155 197.242,300.538 
	296.157,255.527 "/>
<polygon style="fill:#95AC66;" points="148.073,96.107 69.303,118.613 69.112,118.478 0,221.768 0,255.525 148.076,300.536 
	266.446,264.558 197.242,110.155 "/>
<polygon style="fill:#8CE6FE;" points="226.842,118.613 227.044,118.478 148.078,0.468 175.262,136.434 209.02,136.434 "/>
<path style="fill:#D9F7FF;" d="M148.078,0.468c-0.007-0.009-78.967,118.01-78.967,118.01l0.191,0.135l39.385,39.385l39.385-39.385
	l39.385,39.385l21.563-21.563L148.078,0.468z"/>
<polygon style="fill:#705147;" points="512,221.769 442.888,118.478 442.685,118.613 413.085,110.155 413.085,300.538 512,255.527 
	"/>
<polygon style="fill:#875B51;" points="363.916,96.107 285.147,118.613 284.956,118.478 193.257,255.525 363.919,300.536 
	482.289,264.558 413.085,110.155 "/>
<polygon style="fill:#8CE6FE;" points="442.685,118.613 442.888,118.478 363.922,0.468 391.105,136.434 424.863,136.434 "/>
<path style="fill:#D9F7FF;" d="M363.922,0.468c-0.007-0.009-78.967,118.01-78.967,118.01l0.191,0.135l39.385,39.385l39.385-39.385
	l39.385,39.385l21.563-21.563L363.922,0.468z"/>
<polygon style="fill:#A3DC93;" points="478.242,255.532 455.736,383.532 478.242,511.532 512,511.532 512,255.532 "/>
<g>
	<rect y="255.527" style="fill:#CAED73;" width="478.242" height="256"/>
	<path style="fill:#CAED73;" d="M32.633,263.97c-4.661,0-8.44-3.778-8.44-8.44v-11.253c0-4.662,3.779-8.44,8.44-8.44
		s8.44,3.778,8.44,8.44v11.253C41.073,260.193,37.294,263.97,32.633,263.97z"/>
	<path style="fill:#CAED73;" d="M443.358,263.97c-4.661,0-8.44-3.778-8.44-8.44v-11.253c0-4.662,3.779-8.44,8.44-8.44
		c4.661,0,8.44,3.778,8.44,8.44v11.253C451.798,260.193,448.019,263.97,443.358,263.97z"/>
	<path style="fill:#CAED73;" d="M409.6,263.97c-4.661,0-8.44-3.778-8.44-8.44v-11.253c0-4.662,3.779-8.44,8.44-8.44
		c4.661,0,8.44,3.778,8.44,8.44v11.253C418.04,260.193,414.261,263.97,409.6,263.97z"/>
	<path style="fill:#CAED73;" d="M342.084,263.97c-4.661,0-8.44-3.778-8.44-8.44v-11.253c0-4.662,3.779-8.44,8.44-8.44
		s8.44,3.778,8.44,8.44v11.253C350.523,260.193,346.744,263.97,342.084,263.97z"/>
</g>
<path style="fill:#A3DC93;" d="M66.391,387.751c-4.661,0-8.44-3.778-8.44-8.44v-11.253c0-4.662,3.779-8.44,8.44-8.44
	s8.44,3.778,8.44,8.44v11.253C74.831,383.973,71.052,387.751,66.391,387.751z"/>
<g>
	<path style="fill:#AAC36D;" d="M342.084,418.696c-4.661,0-8.44-3.778-8.44-8.44v-11.253c0-4.662,3.779-8.44,8.44-8.44
		s8.44,3.778,8.44,8.44v11.253C350.523,414.918,346.744,418.696,342.084,418.696z"/>
	<path style="fill:#AAC36D;" d="M235.182,487.9c-4.661,0-8.44-3.778-8.44-8.44v-11.253c0-4.662,3.779-8.44,8.44-8.44
		c4.661,0,8.44,3.778,8.44,8.44v11.253C243.622,484.122,239.843,487.9,235.182,487.9z"/>
</g>
<g>
	<path style="fill:#A3DC93;" d="M308.325,452.454c-4.661,0-8.44-3.778-8.44-8.44v-11.253c0-4.662,3.779-8.44,8.44-8.44
		s8.44,3.778,8.44,8.44v11.253C316.765,448.676,312.986,452.454,308.325,452.454z"/>
	<path style="fill:#A3DC93;" d="M375.842,342.74c-4.661,0-8.44-3.778-8.44-8.44v-11.253c0-4.662,3.779-8.44,8.44-8.44
		s8.44,3.778,8.44,8.44V334.3C384.281,338.962,380.503,342.74,375.842,342.74z"/>
</g>
<g>
	<path style="fill:#AAC36D;" d="M443.358,376.498c-4.661,0-8.44-3.778-8.44-8.44v-11.253c0-4.662,3.779-8.44,8.44-8.44
		c4.661,0,8.44,3.778,8.44,8.44v11.253C451.798,372.72,448.019,376.498,443.358,376.498z"/>
	<path style="fill:#AAC36D;" d="M167.666,342.74c-4.661,0-8.44-3.778-8.44-8.44v-11.253c0-4.662,3.779-8.44,8.44-8.44
		s8.44,3.778,8.44,8.44V334.3C176.105,338.962,172.327,342.74,167.666,342.74z"/>
	<path style="fill:#AAC36D;" d="M235.182,376.498c-4.661,0-8.44-3.778-8.44-8.44v-11.253c0-4.662,3.779-8.44,8.44-8.44
		c4.661,0,8.44,3.778,8.44,8.44v11.253C243.622,372.72,239.843,376.498,235.182,376.498z"/>
	<path style="fill:#AAC36D;" d="M201.424,308.981c-4.661,0-8.44-3.778-8.44-8.44v-11.253c0-4.662,3.779-8.44,8.44-8.44
		c4.661,0,8.44,3.778,8.44,8.44v11.253C209.864,305.204,206.085,308.981,201.424,308.981z"/>
	<path style="fill:#AAC36D;" d="M409.6,486.212c-4.661,0-8.44-3.778-8.44-8.44V466.52c0-4.662,3.779-8.44,8.44-8.44
		c4.661,0,8.44,3.778,8.44,8.44v11.253C418.04,482.435,414.261,486.212,409.6,486.212z"/>
</g>
</svg>