<?xml version="1.0" encoding="iso-8859-1"?>
<!-- Uploaded to: SVG Repo, www.svgrepo.com, Generator: SVG Repo Mixer Tools -->
<svg height="800px" width="800px" version="1.1" id="Layer_1" xmlns="http://www.w3.org/2000/svg" xmlns:xlink="http://www.w3.org/1999/xlink" 
	 viewBox="0 0 512 512" xml:space="preserve">
<path style="fill:#4B8D8F;" d="M512,256c-9.219,18.983-28.68,32.07-51.2,32.07l-33.758,111.965L460.8,512H512V256z"/>
<path style="fill:#63ABA1;" d="M409.6,256c-9.218,18.982-28.68,32.07-51.2,32.07c-22.52,0-41.982-13.088-51.2-32.07
	c-9.218,18.982-28.68,32.07-51.2,32.07c-22.52,0-41.982-13.088-51.2-32.07c-9.218,18.982-28.68,32.07-51.2,32.07
	s-41.982-13.088-51.2-32.07c-9.218,18.982-28.68,32.07-51.2,32.07S9.219,274.983,0,256v256h460.8V288.07
	C438.28,288.07,418.818,274.982,409.6,256z"/>
<g>
	<path style="fill:#FFFFFF;" d="M162.04,364.026H145.16c-4.661,0-8.44-3.778-8.44-8.44s3.779-8.44,8.44-8.44h16.879
		c4.661,0,8.44,3.778,8.44,8.44S166.7,364.026,162.04,364.026z"/>
	<path style="fill:#FFFFFF;" d="M418.04,465.301H401.16c-4.661,0-8.44-3.778-8.44-8.44s3.779-8.44,8.44-8.44h16.879
		c4.661,0,8.44,3.778,8.44,8.44S422.7,465.301,418.04,465.301z"/>
	<path style="fill:#FFFFFF;" d="M469.24,431.543H452.36c-4.661,0-8.44-3.778-8.44-8.44c0-4.662,3.779-8.44,8.44-8.44h16.879
		c4.661,0,8.44,3.778,8.44,8.44C477.679,427.765,473.9,431.543,469.24,431.543z"/>
	<path style="fill:#FFFFFF;" d="M366.84,397.785H349.96c-4.661,0-8.44-3.778-8.44-8.44s3.779-8.44,8.44-8.44h16.879
		c4.661,0,8.44,3.778,8.44,8.44S371.5,397.785,366.84,397.785z"/>
	<path style="fill:#FFFFFF;" d="M59.64,397.785H42.76c-4.661,0-8.44-3.778-8.44-8.44s3.779-8.44,8.44-8.44H59.64
		c4.661,0,8.44,3.778,8.44,8.44S64.3,397.785,59.64,397.785z"/>
</g>
<path style="fill:#FE9528;" d="M256,0v101.275c27.966,0,50.637-22.671,50.637-50.637S283.966,0,256,0z"/>
<path style="fill:#FEC14D;" d="M272.879,50.637C272.879,22.671,265.322,0,256,0c-27.966,0-50.637,22.671-50.637,50.637
	s22.671,50.637,50.637,50.637C265.322,101.275,272.879,78.604,272.879,50.637z"/>
<path style="fill:#4D392F;" d="M460.8,122.343c-3.232,0-6.18-1.845-7.592-4.753c-2.8-5.764-8.514-9.345-14.913-9.345
	c-4.661,0-8.44-3.778-8.44-8.44s3.779-8.44,8.44-8.44c8.415,0,16.432,3.236,22.505,8.743c6.073-5.507,14.091-8.743,22.505-8.743
	c4.661,0,8.44,3.778,8.44,8.44s-3.779,8.44-8.44,8.44c-6.401,0-12.115,3.582-14.913,9.345
	C466.98,120.498,464.032,122.343,460.8,122.343z"/>
<path style="fill:#59473C;" d="M153.6,218.052c-3.232,0-6.18-1.845-7.592-4.753c-2.799-5.764-8.514-9.344-14.913-9.344
	c-4.661,0-8.44-3.778-8.44-8.44c0-4.662,3.779-8.44,8.44-8.44c8.415,0,16.432,3.236,22.505,8.742
	c6.073-5.506,14.091-8.742,22.505-8.742c4.661,0,8.44,3.778,8.44,8.44c0,4.662-3.779,8.44-8.44,8.44
	c-6.401,0-12.115,3.581-14.913,9.344C159.78,216.208,156.832,218.052,153.6,218.052z"/>
<path style="fill:#4D392F;" d="M358.4,170.198c-3.232,0-6.18-1.845-7.592-4.753c-2.799-5.764-8.514-9.344-14.913-9.344
	c-4.661,0-8.44-3.778-8.44-8.44s3.779-8.44,8.44-8.44c8.415,0,16.432,3.236,22.505,8.742c6.073-5.506,14.091-8.742,22.505-8.742
	c4.661,0,8.44,3.778,8.44,8.44c0,4.662-3.779,8.44-8.44,8.44c-6.401,0-12.115,3.581-14.913,9.344
	C364.58,168.352,361.632,170.198,358.4,170.198z"/>
</svg>