<?xml version="1.0" encoding="iso-8859-1"?>
<!-- Uploaded to: SVG Repo, www.svgrepo.com, Generator: SVG Repo Mixer Tools -->
<svg version="1.1" id="Layer_1" xmlns="http://www.w3.org/2000/svg" xmlns:xlink="http://www.w3.org/1999/xlink" 
	 viewBox="0 0 512 512" xml:space="preserve">
<rect x="247.697" y="58.119" style="fill:#FD8300;" width="16.605" height="232.476"/>
<path style="fill:#95AC66;" d="M332.322,52.248c-10.985-10.985-25.58-17.035-41.096-17.035c-7.906,0-15.57,1.578-22.642,4.571
	c6.783-13.718,20.921-23.179,37.233-23.179c4.585,0,8.303-3.717,8.303-8.303S310.402,0,305.816,0
	C284.701,0,266.179,11.32,256,28.208l-11.07,19.106L256,66.421c22.891,0,41.514,18.622,41.514,41.514
	c0,4.585,3.717,8.303,8.303,8.303s8.303-3.717,8.303-8.303c0-24.356-15.067-45.248-36.364-53.878
	c4.281-1.466,8.815-2.238,13.469-2.238c11.081,0,21.506,4.322,29.355,12.171c1.622,1.623,3.746,2.433,5.872,2.433
	c2.125,0,4.25-0.81,5.871-2.432C335.564,60.748,335.564,55.49,332.322,52.248z"/>
<path style="fill:#AAC36D;" d="M206.184,0c-4.585,0-8.303,3.717-8.303,8.303s3.717,8.303,8.303,8.303
	c16.312,0,30.45,9.461,37.233,23.179c-7.072-2.993-14.736-4.571-22.642-4.571c-15.516,0-30.111,6.05-41.096,17.035
	c-3.242,3.242-3.242,8.5,0,11.741c3.242,3.242,8.5,3.242,11.741,0c7.849-7.849,18.274-12.171,29.355-12.171
	c4.654,0,9.189,0.772,13.469,2.238c-21.296,8.63-36.363,29.522-36.363,53.878c0,4.585,3.717,8.303,8.303,8.303
	c4.585,0,8.303-3.717,8.303-8.303c0-22.891,18.622-41.514,41.514-41.514V28.208C245.821,11.32,227.299,0,206.184,0z"/>
<rect x="110.581" y="146.681" style="fill:#FD8300;" width="16.605" height="143.914"/>
<path style="fill:#95AC66;" d="M195.205,140.811c-10.985-10.985-25.58-17.035-41.096-17.035c-7.906,0-15.57,1.578-22.642,4.571
	c6.783-13.718,20.921-23.179,37.233-23.179c4.585,0,8.303-3.717,8.303-8.303s-3.717-8.303-8.303-8.303
	c-21.115,0-39.637,11.32-49.816,28.208l-11.07,19.106l11.07,19.106c22.891,0,41.514,18.622,41.514,41.514
	c0,4.585,3.717,8.303,8.303,8.303c4.585,0,8.303-3.717,8.303-8.303c0-24.356-15.067-45.248-36.364-53.878
	c4.281-1.466,8.815-2.238,13.469-2.238c11.081,0,21.506,4.322,29.355,12.171c1.621,1.621,3.746,2.432,5.871,2.432
	s4.25-0.81,5.871-2.432C198.448,149.31,198.448,144.052,195.205,140.811z"/>
<path style="fill:#AAC36D;" d="M69.067,88.562c-4.585,0-8.303,3.717-8.303,8.303s3.717,8.303,8.303,8.303
	c16.312,0,30.45,9.461,37.233,23.179c-7.072-2.993-14.736-4.571-22.642-4.571c-15.516,0-30.111,6.05-41.096,17.035
	c-3.242,3.242-3.242,8.5,0,11.741c3.242,3.242,8.5,3.242,11.741,0c7.849-7.849,18.274-12.171,29.355-12.171
	c4.654,0,9.189,0.772,13.469,2.238c-21.297,8.63-36.363,29.522-36.363,53.878c0,4.585,3.717,8.303,8.303,8.303
	c4.585,0,8.303-3.717,8.303-8.303c0-22.891,18.622-41.514,41.514-41.514V116.77C108.705,99.883,90.182,88.562,69.067,88.562z"/>
<rect x="384.814" y="146.681" style="fill:#FD8300;" width="16.605" height="143.914"/>
<path style="fill:#95AC66;" d="M469.438,140.811c-10.985-10.985-25.58-17.035-41.096-17.035c-7.906,0-15.57,1.578-22.642,4.571
	c6.783-13.718,20.921-23.179,37.233-23.179c4.585,0,8.303-3.717,8.303-8.303s-3.717-8.303-8.303-8.303
	c-21.115,0-39.637,11.32-49.816,28.208l-11.07,19.106l11.07,19.106c22.891,0,41.514,18.622,41.514,41.514
	c0,4.585,3.717,8.303,8.303,8.303c4.585,0,8.303-3.717,8.303-8.303c0-24.356-15.067-45.248-36.364-53.878
	c4.281-1.466,8.815-2.238,13.469-2.238c11.081,0,21.506,4.322,29.355,12.171c1.621,1.621,3.746,2.432,5.871,2.432
	s4.25-0.81,5.871-2.432C472.681,149.31,472.681,144.052,469.438,140.811z"/>
<path style="fill:#AAC36D;" d="M343.3,88.562c-4.585,0-8.303,3.717-8.303,8.303s3.717,8.303,8.303,8.303
	c16.312,0,30.45,9.461,37.233,23.179c-7.072-2.993-14.736-4.571-22.642-4.571c-15.516,0-30.111,6.05-41.096,17.035
	c-3.242,3.242-3.242,8.5,0,11.741c3.242,3.242,8.5,3.242,11.741,0c7.849-7.849,18.274-12.171,29.355-12.171
	c4.654,0,9.189,0.772,13.469,2.238c-21.297,8.631-36.364,29.522-36.364,53.878c0,4.585,3.717,8.303,8.303,8.303
	c4.585,0,8.303-3.717,8.303-8.303c0-22.891,18.622-41.514,41.513-41.514V116.77C382.938,99.883,364.416,88.562,343.3,88.562z"/>
<g>
	<path style="fill:#CAED73;" d="M85.673,226.941c-4.585,0-8.303,3.717-8.303,8.303v55.351h16.605v-55.351
		C93.976,230.658,90.258,226.941,85.673,226.941z"/>
	<path style="fill:#CAED73;" d="M152.094,226.941c-4.585,0-8.303,3.717-8.303,8.303v55.351h16.605v-55.351
		C160.397,230.658,156.68,226.941,152.094,226.941z"/>
	<path style="fill:#CAED73;" d="M222.789,204.8c-4.585,0-8.303,3.717-8.303,8.303v77.492h16.605v-77.492
		C231.092,208.517,227.374,204.8,222.789,204.8z"/>
</g>
<path style="fill:#AAC36D;" d="M426.327,226.941c-4.585,0-8.303,3.717-8.303,8.303v55.351h16.605v-55.351
	C434.63,230.658,430.913,226.941,426.327,226.941z"/>
<g>
	<path style="fill:#CAED73;" d="M359.906,226.941c-4.585,0-8.303,3.717-8.303,8.303v55.351h16.605v-55.351
		C368.208,230.658,364.491,226.941,359.906,226.941z"/>
	<path style="fill:#CAED73;" d="M289.211,204.8c-4.585,0-8.303,3.717-8.303,8.303v77.492h16.605v-77.492
		C297.514,208.517,293.796,204.8,289.211,204.8z"/>
</g>
<path style="fill:#59473C;" d="M507.849,301.665l-66.422,33.211v-66.422h33.211C492.904,268.454,507.849,283.399,507.849,301.665z"
	/>
<path style="fill:#875B51;" d="M474.638,301.665l-235.243,55.351L4.151,301.665c0-18.266,14.945-33.211,33.211-33.211h404.065
	C459.693,268.454,474.638,283.399,474.638,301.665z"/>
<polygon style="fill:#AAC36D;" points="507.849,467.719 507.849,512 474.638,512 452.497,433.899 "/>
<polygon style="fill:#CAED73;" points="474.638,467.719 474.638,512 4.151,512 4.151,467.719 239.395,379.157 "/>
<polygon style="fill:#FFA850;" points="507.849,301.665 507.849,359.784 496.778,368.086 507.849,376.389 507.849,426.205 
	496.778,434.508 507.849,442.811 507.849,467.719 474.638,467.719 419.286,384.692 474.638,301.665 "/>
<polygon style="fill:#FECB69;" points="474.638,301.665 474.638,467.719 4.151,467.719 4.151,409.6 15.222,401.297 4.151,392.995 
	4.151,376.389 15.222,368.086 4.151,359.784 4.151,301.665 "/>
<path style="fill:#AAC36D;" d="M125.924,368.086H92.714l-27.676-32.735c1.804-0.321,3.653-0.476,5.535-0.476h22.141
	C111.057,334.876,125.924,349.743,125.924,368.086z"/>
<path style="fill:#CAED73;" d="M92.714,368.086H37.362c0-16.461,11.967-30.111,27.676-32.735
	C80.747,337.975,92.714,351.625,92.714,368.086z"/>
<path style="fill:#7F9058;" d="M192.346,401.297h-33.211l33.211,33.211h33.211C225.557,416.165,210.689,401.297,192.346,401.297z"/>
<path style="fill:#AAC36D;" d="M192.346,434.508H92.714c0-18.343,14.867-33.211,33.211-33.211h33.211
	C177.479,401.297,192.346,416.165,192.346,434.508z"/>
<path style="fill:#FFFFFF;" d="M148.065,359.784H4.151v16.605h143.914c4.585,0,8.303-3.717,8.303-8.303
	C156.368,363.501,152.65,359.784,148.065,359.784z"/>
<path style="fill:#7F9058;" d="M474.638,368.086h-33.211l-27.676-32.735c1.804-0.321,3.653-0.476,5.535-0.476h22.141
	C459.77,334.876,474.638,349.743,474.638,368.086z"/>
<path style="fill:#AAC36D;" d="M441.427,368.086h-55.351c0-16.461,11.967-30.111,27.676-32.735
	C429.46,337.975,441.427,351.625,441.427,368.086z"/>
<g>
	<path style="fill:#FFFFFF;" d="M352.865,359.784c-4.585,0-8.303,3.717-8.303,8.303c0,4.585,3.717,8.303,8.303,8.303h154.984
		v-16.605H352.865z"/>
	<path style="fill:#FFFFFF;" d="M325.189,442.811h-33.211c-4.585,0-8.303-3.717-8.303-8.303s3.717-8.303,8.303-8.303h33.211
		c4.585,0,8.303,3.717,8.303,8.303S329.775,442.811,325.189,442.811z"/>
	<path style="fill:#FFFFFF;" d="M369.47,442.811H358.4c-4.585,0-8.303-3.717-8.303-8.303s3.717-8.303,8.303-8.303h11.07
		c4.585,0,8.303,3.717,8.303,8.303S374.056,442.811,369.47,442.811z"/>
	<path style="fill:#FFFFFF;" d="M474.638,426.205c-4.585,0-8.303,3.717-8.303,8.303s3.717,8.303,8.303,8.303h33.211v-16.605H474.638
		z"/>
	<path style="fill:#FFFFFF;" d="M319.654,376.389h-33.211c-4.585,0-8.303-3.717-8.303-8.303c0-4.585,3.717-8.303,8.303-8.303h33.211
		c4.585,0,8.303,3.717,8.303,8.303C327.957,372.672,324.239,376.389,319.654,376.389z"/>
	<path style="fill:#FFFFFF;" d="M37.362,392.995H4.151V409.6h33.211c4.585,0,8.303-3.717,8.303-8.303S41.947,392.995,37.362,392.995
		z"/>
	<path style="fill:#FFFFFF;" d="M220.022,343.178h-11.07c-4.585,0-8.303-3.717-8.303-8.303c0-4.585,3.717-8.303,8.303-8.303h11.07
		c4.585,0,8.303,3.717,8.303,8.303C228.324,339.461,224.607,343.178,220.022,343.178z"/>
	<path style="fill:#FFFFFF;" d="M286.443,343.178h-33.211c-4.585,0-8.303-3.717-8.303-8.303c0-4.585,3.717-8.303,8.303-8.303h33.211
		c4.585,0,8.303,3.717,8.303,8.303C294.746,339.461,291.029,343.178,286.443,343.178z"/>
	<path style="fill:#FFFFFF;" d="M258.768,442.811H59.503c-4.585,0-8.303-3.717-8.303-8.303s3.717-8.303,8.303-8.303h199.265
		c4.585,0,8.303,3.717,8.303,8.303S263.353,442.811,258.768,442.811z"/>
</g>
</svg>