<?xml version="1.0" encoding="iso-8859-1"?>
<!-- Uploaded to: SVG Repo, www.svgrepo.com, Generator: SVG Repo Mixer Tools -->
<svg version="1.1" id="Layer_1" xmlns="http://www.w3.org/2000/svg" xmlns:xlink="http://www.w3.org/1999/xlink" 
	 viewBox="0 0 512 512" xml:space="preserve">
<path style="fill:#FE9528;" d="M189.901,199.748V388.22l153.307-33.758C343.209,269.481,274.702,200.501,189.901,199.748z"/>
<path style="fill:#FEC14D;" d="M189.901,199.748c59.943,1.069,108.296,69.925,108.296,154.714L189.901,388.22L33.758,354.462
	c0-85.453,69.272-154.725,154.725-154.725C188.956,199.736,189.429,199.736,189.901,199.748z"/>
<polygon style="fill:#69744A;" points="512,354.462 512,512 478.242,512 410.725,433.231 478.242,354.462 "/>
<polygon style="fill:#7F9058;" points="478.242,354.462 478.242,512 444.484,512 385.407,489.495 326.33,512 281.319,512 
	213.802,489.495 146.286,512 0,512 0,354.462 "/>
<g>
	<path style="fill:#69744A;" d="M78.769,481.055c-4.661,0-8.44-3.779-8.44-8.44v-11.253c0-4.661,3.779-8.44,8.44-8.44
		s8.44,3.779,8.44,8.44v11.253C87.209,477.276,83.43,481.055,78.769,481.055z"/>
	<path style="fill:#69744A;" d="M45.011,447.297c-4.661,0-8.44-3.779-8.44-8.44v-11.253c0-4.661,3.779-8.44,8.44-8.44
		s8.44,3.779,8.44,8.44v11.253C53.451,443.518,49.672,447.297,45.011,447.297z"/>
	<path style="fill:#69744A;" d="M112.527,413.538c-4.661,0-8.44-3.779-8.44-8.44v-11.253c0-4.661,3.779-8.44,8.44-8.44
		c4.661,0,8.44,3.779,8.44,8.44v11.253C120.967,409.76,117.188,413.538,112.527,413.538z"/>
</g>
<polygon style="fill:#FEC14D;" points="444.484,0 444.484,69.204 388.22,91.71 410.725,0 "/>
<polygon style="fill:#FFD686;" points="410.725,0 410.725,91.71 343.209,69.204 343.209,0 "/>
<polygon style="fill:#FFE0A2;" points="410.725,69.204 365.714,466.989 444.484,466.989 444.484,69.204 "/>
<rect x="343.209" y="69.204" style="fill:#FFEDC6;" width="67.516" height="397.785"/>
<polygon style="fill:#FEC14D;" points="427.604,444.484 393.846,489.495 461.363,489.495 461.363,444.484 "/>
<rect x="326.33" y="444.484" style="fill:#FFD686;" width="101.275" height="45.011"/>
<path style="fill:#FFA850;" d="M461.363,478.242h-33.758V512h33.758c9.317,0,16.879-7.562,16.879-16.879
	C478.242,485.804,470.68,478.242,461.363,478.242z"/>
<path style="fill:#FEC14D;" d="M427.604,478.242c9.317,0,16.879,7.562,16.879,16.879c0,9.317-7.562,16.879-16.879,16.879H326.33
	c-9.317,0-16.879-7.562-16.879-16.879c0-9.317,7.562-16.879,16.879-16.879H427.604z"/>
<path style="fill:#FFA850;" d="M458.549,452.923H329.143c-4.662,0-8.44-3.779-8.44-8.44c0-4.661,3.778-8.44,8.44-8.44h129.407
	c4.662,0,8.44,3.779,8.44,8.44C466.989,449.144,463.211,452.923,458.549,452.923z"/>
<g>
	<path style="fill:#FFFFFF;" d="M368.527,69.204v341.521c0,4.661,3.778,8.44,8.44,8.44s8.44-3.779,8.44-8.44V69.204H368.527z"/>
	<path style="fill:#FFFFFF;" d="M402.286,69.204v341.521c0,4.661,3.778,8.44,8.44,8.44s8.44-3.779,8.44-8.44V69.204H402.286z"/>
</g>
<polygon style="fill:#FFE0A2;" points="239.121,174.418 185.67,466.989 264.44,466.989 264.44,174.418 "/>
<polygon style="fill:#FFEDC6;" points="163.165,466.989 163.165,140.659 188.484,140.659 205.364,149.1 222.244,165.98 
	230.681,185.67 230.681,466.989 "/>
<polygon style="fill:#FEC14D;" points="247.56,444.484 213.802,489.495 281.319,489.495 281.319,444.484 "/>
<rect x="146.286" y="444.484" style="fill:#FFD686;" width="101.275" height="45.011"/>
<path style="fill:#FFA850;" d="M281.319,478.242H247.56V512h33.758c9.317,0,16.879-7.562,16.879-16.879
	C298.198,485.804,290.636,478.242,281.319,478.242z"/>
<path style="fill:#FEC14D;" d="M247.56,478.242c9.317,0,16.879,7.562,16.879,16.879c0,9.317-7.562,16.879-16.879,16.879H146.286
	c-9.317,0-16.879-7.562-16.879-16.879c0-9.317,7.562-16.879,16.879-16.879H247.56z"/>
<path style="fill:#FFA850;" d="M278.505,452.923H149.099c-4.661,0-8.44-3.779-8.44-8.44c0-4.661,3.779-8.44,8.44-8.44h129.407
	c4.662,0,8.44,3.779,8.44,8.44C286.945,449.144,283.168,452.923,278.505,452.923z"/>
<g>
	<path style="fill:#FFFFFF;" d="M196.923,419.165c4.661,0,8.44-3.779,8.44-8.44V149.099l-8.44-8.44h-8.44v270.066
		C188.484,415.386,192.262,419.165,196.923,419.165z"/>
	<path style="fill:#FFFFFF;" d="M230.681,174.418l-8.44-8.44v244.747c0,4.661,3.779,8.44,8.44,8.44c4.661,0,8.44-3.779,8.44-8.44
		V174.418H230.681z"/>
</g>
<path style="fill:#B3EFFF;" d="M92.835,67.516H59.077v56.264h33.758c15.54,0,28.132-12.592,28.132-28.132
	S108.375,67.516,92.835,67.516z"/>
<path style="fill:#D9F7FF;" d="M59.077,67.516c15.54,0,28.132,12.592,28.132,28.132S74.617,123.78,59.077,123.78H28.132
	C12.592,123.78,0,111.188,0,95.648s12.592-28.132,28.132-28.132H59.077z"/>
<path style="fill:#B3EFFF;" d="M284.132,0h-33.758v56.264h33.758c15.54,0,28.132-12.592,28.132-28.132S299.672,0,284.132,0z"/>
<path style="fill:#D9F7FF;" d="M250.374,0c15.54,0,28.132,12.592,28.132,28.132s-12.592,28.132-28.132,28.132h-87.209
	c-15.54,0-28.132-12.592-28.132-28.132S147.625,0,163.165,0H250.374z"/>
<path style="fill:#FFA850;" d="M447.297,77.644H340.396c-4.662,0-8.44-3.779-8.44-8.44s3.778-8.44,8.44-8.44h106.901
	c4.662,0,8.44,3.779,8.44,8.44S451.959,77.644,447.297,77.644z"/>
</svg>