<?xml version="1.0" encoding="iso-8859-1"?>
<!-- Uploaded to: SVG Repo, www.svgrepo.com, Generator: SVG Repo Mixer Tools -->
<svg version="1.1" id="Layer_1" xmlns="http://www.w3.org/2000/svg" xmlns:xlink="http://www.w3.org/1999/xlink" 
	 viewBox="0 0 512 512" xml:space="preserve">
<path style="fill:#E86C16;" d="M337.582,205.396v8.44c0,20.165-16.405,36.571-36.571,36.571h-6.083
	c8.995-9.569,14.523-22.433,14.523-36.571v-8.44h-16.879v8.44c0,20.165-16.405,36.571-36.571,36.571v16.879h45.011
	c29.472,0,53.451-23.979,53.451-53.451v-8.44H337.582z"/>
<polygon style="fill:#FE9528;" points="512,309.484 512,377.8 444.484,411.558 478.242,309.484 "/>
<rect x="130.993" y="309.484" style="fill:#FEC14D;" width="347.249" height="102.074"/>
<path style="fill:#E86C16;" d="M167.531,321.919c-9.205-16.125-31.935-29.313-50.502-29.313H83.27l81.988,84.384l33.758,0.011
	L167.531,321.919z"/>
<path style="fill:#FD8300;" d="M165.258,376.99L0,376.967v-84.362h83.27c18.567,0,41.298,13.188,50.502,29.313L165.258,376.99z"/>
<g>
	<path style="fill:#7F9058;" d="M478.242,334.769c-4.662,0-8.44,3.779-8.44,8.44v45.011h16.879v-45.011
		C486.681,338.548,482.904,334.769,478.242,334.769z"/>
	<path style="fill:#7F9058;" d="M444.484,334.769c-4.662,0-8.44,3.779-8.44,8.44v45.011h16.879v-45.011
		C452.923,338.548,449.146,334.769,444.484,334.769z"/>
	<path style="fill:#7F9058;" d="M410.725,334.769c-4.662,0-8.44,3.779-8.44,8.44v45.011h16.879v-45.011
		C419.165,338.548,415.387,334.769,410.725,334.769z"/>
	<path style="fill:#7F9058;" d="M343.209,334.769c-4.662,0-8.44,3.779-8.44,8.44v45.011h16.879v-45.011
		C351.648,338.548,347.871,334.769,343.209,334.769z"/>
	<path style="fill:#7F9058;" d="M309.451,334.769c-4.662,0-8.44,3.779-8.44,8.44v45.011h16.879v-45.011
		C317.89,338.548,314.113,334.769,309.451,334.769z"/>
</g>
<polygon style="fill:#FEC14D;" points="512,376.967 512,512 478.242,512 421.978,444.484 478.242,376.967 "/>
<path style="fill:#FE9528;" d="M247.56,205.396v44.017c-16.108-3.821-28.132-18.317-28.132-35.578v-8.44h-16.879v8.44
	c0,14.138,5.527,27.002,14.523,36.571h-6.083c-20.166,0-36.571-16.407-36.571-36.571v-8.44h-16.879v8.44
	c0,29.472,23.978,53.451,53.451,53.451h36.571v115.22h16.879v-177.11H247.56z"/>
<rect y="376.967" style="fill:#FFD686;" width="478.242" height="135.033"/>
<path style="fill:#FFA850;" d="M256,0v101.275c27.963,0,50.637-22.674,50.637-50.637S283.963,0,256,0z"/>
<path style="fill:#FECB69;" d="M256,0c12.434,0,22.505,22.674,22.505,50.637S268.434,101.275,256,101.275
	c-27.963,0-50.637-22.674-50.637-50.637S228.037,0,256,0z"/>
<path style="fill:#7F9058;" d="M368.527,180.01h-33.758c-0.034-18.612-15.135-33.691-33.758-33.691h-33.758l67.517,67.516h33.758
	c9.34,0,16.913-7.573,16.913-16.913S377.867,180.01,368.527,180.01z"/>
<path style="fill:#AAC36D;" d="M334.769,180.01c9.34,0,16.913,7.573,16.913,16.913s-7.573,16.913-16.913,16.913H143.473
	c-9.34,0-16.913-7.573-16.913-16.913s7.573-16.913,16.913-16.913h33.758c0.034-18.612,15.135-33.691,33.758-33.691h56.264
	c18.623,0,33.724,15.079,33.758,33.691H334.769z"/>
<g>
	<path style="fill:#7F9058;" d="M410.725,475.429c-4.662,0-8.44-3.779-8.44-8.44v-33.758c0-4.661,3.778-8.44,8.44-8.44
		s8.44,3.779,8.44,8.44v33.758C419.165,471.65,415.387,475.429,410.725,475.429z"/>
	<path style="fill:#7F9058;" d="M376.967,486.681c-4.662,0-8.44-3.779-8.44-8.44v-33.758c0-4.661,3.778-8.44,8.44-8.44
		s8.44,3.779,8.44,8.44v33.758C385.407,482.903,381.629,486.681,376.967,486.681z"/>
	<path style="fill:#7F9058;" d="M478.242,486.681c-4.662,0-8.44-3.779-8.44-8.44v-33.758c0-4.661,3.778-8.44,8.44-8.44
		s8.44,3.779,8.44,8.44v33.758C486.681,482.903,482.904,486.681,478.242,486.681z"/>
	<path style="fill:#7F9058;" d="M208.176,464.176c-4.662,0-8.44-3.779-8.44-8.44v-33.758c0-4.661,3.778-8.44,8.44-8.44
		c4.662,0,8.44,3.779,8.44,8.44v33.758C216.615,460.397,212.838,464.176,208.176,464.176z"/>
	<path style="fill:#7F9058;" d="M33.758,486.681c-4.662,0-8.44-3.779-8.44-8.44v-33.758c0-4.661,3.778-8.44,8.44-8.44
		s8.44,3.779,8.44,8.44v33.758C42.198,482.903,38.42,486.681,33.758,486.681z"/>
	<path style="fill:#7F9058;" d="M174.418,486.681c-4.662,0-8.44-3.779-8.44-8.44v-33.758c0-4.661,3.778-8.44,8.44-8.44
		s8.44,3.779,8.44,8.44v33.758C182.857,482.903,179.08,486.681,174.418,486.681z"/>
	<path style="fill:#7F9058;" d="M140.659,464.176c-4.662,0-8.44-3.779-8.44-8.44v-33.758c0-4.661,3.778-8.44,8.44-8.44
		s8.44,3.779,8.44,8.44v33.758C149.099,460.397,145.321,464.176,140.659,464.176z"/>
</g>
</svg>