<?xml version="1.0" encoding="iso-8859-1"?>
<!-- Uploaded to: SVG Repo, www.svgrepo.com, Generator: SVG Repo Mixer Tools -->
<svg version="1.1" id="Layer_1" xmlns="http://www.w3.org/2000/svg" xmlns:xlink="http://www.w3.org/1999/xlink" 
	 viewBox="0 0 512 512" xml:space="preserve">
<path style="fill:#875B51;" d="M283.81,105.379c-4.656,0-8.43,3.773-8.43,8.43v44.962h16.861v-44.962
	C292.24,109.152,288.466,105.379,283.81,105.379z"/>
<path style="fill:#63ABA1;" d="M145.619,204.957l-19.3-33.766c-9.195-16.107-31.9-29.281-50.447-29.281H42.151v140.505
	l134.885-22.481L145.619,204.957z"/>
<path style="fill:#83C49A;" d="M92.598,171.191l50.717,88.743L42.151,282.415L0,259.934V141.91h42.151
	C60.698,141.91,83.404,155.084,92.598,171.191z"/>
<polygon style="fill:#FFE0A2;" points="425.439,145.282 373.733,184.061 373.733,217.783 477.145,217.783 477.145,184.061 "/>
<polygon style="fill:#FFEDC6;" points="425.439,179.003 373.733,217.783 373.733,282.415 477.145,282.415 477.145,217.783 "/>
<g>
	<path style="fill:#D3552B;" d="M488.378,200.922c-1.76,0-3.535-0.549-5.051-1.686l-57.888-43.416l-57.888,43.416
		c-3.724,2.793-9.009,2.039-11.802-1.686c-2.793-3.724-2.038-9.009,1.686-11.802l62.946-47.21c2.998-2.248,7.119-2.248,10.116,0
		l62.946,47.21c3.724,2.793,4.479,8.078,1.686,11.802C493.474,199.759,490.941,200.922,488.378,200.922z"/>
	<path style="fill:#D3552B;" d="M425.439,217.783c-4.656,0-8.43,3.773-8.43,8.43v44.962h16.861v-44.962
		C433.869,221.556,430.095,217.783,425.439,217.783z"/>
</g>
<polygon style="fill:#BFDB74;" points="478.279,259.934 455.798,385.827 478.279,511.719 512,511.719 512,259.934 "/>
<rect x="0.562" y="259.934" style="fill:#CAED73;" width="477.717" height="251.785"/>
<polygon style="fill:#FFE0A2;" points="85.999,293.655 34.293,332.435 34.293,366.156 137.705,366.156 137.705,332.435 "/>
<polygon style="fill:#FFFFFF;" points="85.999,327.377 34.293,366.156 34.293,408.307 137.705,408.307 137.705,366.156 "/>
<g>
	<path style="fill:#D3552B;" d="M148.939,349.295c-1.76,0-3.535-0.549-5.051-1.686l-57.888-43.416l-57.888,43.416
		c-3.724,2.794-9.008,2.039-11.802-1.686c-2.793-3.724-2.038-9.009,1.686-11.802l62.946-47.21c2.998-2.248,7.119-2.248,10.116,0
		l62.946,47.21c3.724,2.793,4.479,8.078,1.686,11.802C154.034,348.132,151.503,349.295,148.939,349.295z"/>
	<path style="fill:#D3552B;" d="M85.999,416.738c-4.656,0-8.43-3.773-8.43-8.43v-33.721c0-4.657,3.775-8.43,8.43-8.43
		s8.43,3.773,8.43,8.43v33.721C94.429,412.964,90.655,416.738,85.999,416.738z"/>
</g>
<polygon style="fill:#FFE0A2;" points="137.705,374.586 85.999,413.366 85.999,447.087 189.411,447.087 189.411,413.366 "/>
<polygon style="fill:#FFFFFF;" points="137.705,408.307 85.999,447.087 85.999,489.238 189.411,489.238 189.411,447.087 "/>
<g>
	<path style="fill:#D3552B;" d="M137.705,447.087c-4.656,0-8.43,3.773-8.43,8.43v33.721h16.861v-33.721
		C146.135,450.86,142.361,447.087,137.705,447.087z"/>
	<path style="fill:#D3552B;" d="M200.644,430.226c-1.76,0-3.535-0.549-5.051-1.686l-57.888-43.416L79.817,428.54
		c-3.724,2.792-9.009,2.039-11.802-1.686c-2.793-3.724-2.038-9.009,1.686-11.802l62.946-47.21c2.998-2.248,7.119-2.248,10.116,0
		l62.946,47.21c3.724,2.793,4.479,8.078,1.686,11.802C205.74,429.063,203.208,430.226,200.644,430.226z"/>
</g>
<polygon style="fill:#FFE0A2;" points="295.05,376.834 295.05,421.796 418.695,477.998 452.416,477.998 452.416,376.834 "/>
<polygon style="fill:#FFFFFF;" points="306.291,421.796 317.531,477.998 418.695,477.998 418.695,421.796 "/>
<polygon style="fill:#D3552B;" points="441.175,340.865 317.531,340.865 317.531,388.075 463.656,388.075 "/>
<polygon style="fill:#FFE0A2;" points="250.089,239.701 317.531,239.701 317.531,184.061 283.81,158.771 250.089,184.061 "/>
<polygon style="fill:#FFEDC6;" points="250.089,477.998 317.531,477.998 317.531,217.783 283.81,192.492 250.089,217.783 "/>
<path style="fill:#D3552B;" d="M283.81,435.846c-4.656,0-8.43,3.773-8.43,8.43v33.721h16.861v-33.721
	C292.24,439.62,288.466,435.846,283.81,435.846z"/>
<rect x="250.088" y="293.655" style="fill:#FFE0A2;" width="67.442" height="33.721"/>
<circle style="fill:#63ABA1;" cx="283.809" cy="212.162" r="8.43"/>
<path style="fill:#D3552B;" d="M328.765,200.922c-1.76,0-3.535-0.549-5.051-1.686l-39.903-29.928l-39.903,29.928
	c-3.725,2.793-9.008,2.039-11.802-1.686c-2.793-3.724-2.039-9.009,1.686-11.802l44.962-33.721c2.998-2.248,7.119-2.248,10.116,0
	l44.962,33.721c3.725,2.793,4.479,8.078,1.686,11.802C333.86,199.759,331.328,200.922,328.765,200.922z"/>
<path style="fill:#FFFFFF;" d="M320.341,302.086h-73.063c-4.656,0-8.43-3.773-8.43-8.43c0-4.657,3.775-8.43,8.43-8.43h73.063
	c4.656,0,8.43,3.773,8.43,8.43C328.771,298.312,324.997,302.086,320.341,302.086z"/>
<g>
	<path style="fill:#B3EFFF;" d="M441.186,56.483h-33.721V0.281h33.721c15.523,0,28.101,12.578,28.101,28.101
		S456.708,56.483,441.186,56.483z"/>
	<path style="fill:#B3EFFF;" d="M297.87,56.483l-61.822-22.481v50.582h33.721C285.292,84.584,297.87,72.006,297.87,56.483z"/>
</g>
<path style="fill:#D9F7FF;" d="M407.464,56.483c15.523,0,28.101-12.578,28.101-28.101S422.987,0.281,407.464,0.281H210.757
	c-15.523,0-28.101,12.578-28.101,28.101H70.252c-15.523,0-28.101,12.578-28.101,28.101s12.578,28.101,28.101,28.101h165.796
	c15.523,0,28.101-12.578,28.101-28.101h33.721H407.464z"/>
<g>
	<path style="fill:#AAC36D;" d="M34.283,486.428c-4.656,0-8.43-3.773-8.43-8.43v-11.24c0-4.657,3.775-8.43,8.43-8.43
		s8.43,3.773,8.43,8.43v11.24C42.714,482.655,38.939,486.428,34.283,486.428z"/>
	<path style="fill:#AAC36D;" d="M202.889,362.784c-4.656,0-8.43-3.773-8.43-8.43v-11.24c0-4.657,3.775-8.43,8.43-8.43
		c4.656,0,8.43,3.773,8.43,8.43v11.24C211.319,359.01,207.545,362.784,202.889,362.784z"/>
	<path style="fill:#AAC36D;" d="M478.279,313.326c-4.656,0-8.43-3.773-8.43-8.43v-11.24c0-4.657,3.775-8.43,8.43-8.43
		c4.656,0,8.43,3.773,8.43,8.43v11.24C486.709,309.553,482.935,313.326,478.279,313.326z"/>
</g>
</svg>