<?xml version="1.0" encoding="iso-8859-1"?>
<!-- Uploaded to: SVG Repo, www.svgrepo.com, Generator: SVG Repo Mixer Tools -->
<svg version="1.1" id="Layer_1" xmlns="http://www.w3.org/2000/svg" xmlns:xlink="http://www.w3.org/1999/xlink" 
	 viewBox="0 0 512 512" xml:space="preserve">
<polygon style="fill:#FFD686;" points="295.386,61.89 295.386,191.296 250.375,191.296 216.617,118.156 216.614,61.89 "/>
<rect x="216.614" y="118.154" style="fill:#FFEDC6;" width="39.381" height="73.14"/>
<path style="fill:#D3552B;" d="M325.509,173.629c-5.919-8.856-19.478-16.091-30.123-16.091h-8.62v90.021l65.626-33.758
	L325.509,173.629z"/>
<g>
	<path style="fill:#FFD686;" d="M337.584,22.506v61.89h33.758c15.54,0,28.132-12.592,28.132-28.132L337.584,22.506z"/>
	<path style="fill:#FFD686;" d="M483.868,0.001H450.11v56.263h33.758c15.54,0,28.132-12.592,28.132-28.132
		S499.408,0.001,483.868,0.001z"/>
</g>
<path style="fill:#FFEDC6;" d="M450.11,0.001H28.135c-15.54,0-28.132,12.592-28.132,28.132s12.592,28.132,28.132,28.132h84.395
	c0,15.54,12.592,28.132,28.132,28.132h196.922c15.54,0,28.132-12.592,28.132-28.132h84.395c15.54,0,28.132-12.592,28.132-28.132
	S465.65,0.001,450.11,0.001z"/>
<polygon style="fill:#4393A8;" points="352.392,213.801 461.566,376.965 331.293,433.228 331.293,213.801 "/>
<polygon style="fill:#55B9D3;" points="331.293,213.801 416.555,376.965 233.496,433.228 50.438,376.965 159.611,213.801 
	256.002,168.791 "/>
<g>
	<path style="fill:#FD8300;" d="M331.293,213.801h-19.028v78.769c0,10.881-8.811,19.692-19.692,19.692
		c-10.87,0-19.692-8.811-19.692-19.692v-78.769h-33.758v45.011c0,10.881-8.811,19.692-19.692,19.692
		c-10.87,0-19.692-8.811-19.692-19.692v-45.011h-40.127l26.883-40.172c5.919-8.856,19.478-16.091,30.123-16.091h70.149
		c8.316,0,18.904,7.235,23.529,16.091L331.293,213.801z"/>
	<polygon style="fill:#FD8300;" points="511.997,376.967 511.997,511.999 478.239,511.999 421.975,444.483 478.239,376.967 	"/>
</g>
<rect y="376.965" style="fill:#FFA850;" width="478.239" height="135.032"/>
<path style="fill:#FE9528;" d="M202.548,453.064h-11.253c-4.661,0-8.439-3.779-8.439-8.44s3.779-8.439,8.439-8.439h11.253
	c4.661,0,8.44,3.779,8.44,8.439S207.209,453.064,202.548,453.064z"/>
<path style="fill:#E86C16;" d="M478.239,486.681h-33.758c-4.662,0-8.44-3.779-8.44-8.44s3.778-8.44,8.44-8.44h33.758
	c4.662,0,8.439,3.779,8.439,8.44S482.901,486.681,478.239,486.681z"/>
<g>
	<path style="fill:#FE9528;" d="M67.516,486.681H33.758c-4.661,0-8.44-3.779-8.44-8.44s3.779-8.44,8.44-8.44h33.758
		c4.661,0,8.44,3.779,8.44,8.44S72.177,486.681,67.516,486.681z"/>
	<path style="fill:#FE9528;" d="M410.723,486.681h-78.769c-4.662,0-8.44-3.779-8.44-8.44s3.778-8.44,8.44-8.44h78.769
		c4.662,0,8.44,3.779,8.44,8.44S415.385,486.681,410.723,486.681z"/>
</g>
<path style="fill:#E86C16;" d="M95.648,416.492H84.395c-9.322,0-16.879,7.557-16.879,16.879v8.439h45.011v-8.439
	C112.527,424.05,104.969,416.492,95.648,416.492z"/>
<path style="fill:#FD8300;" d="M157.537,453.064H45.011c-4.661,0-8.44-3.779-8.44-8.44s3.779-8.439,8.44-8.439h112.527
	c4.661,0,8.44,3.779,8.44,8.439S162.198,453.064,157.537,453.064z"/>
<path style="fill:#FE9528;" d="M241.932,419.165h-39.384c-4.661,0-8.439-3.779-8.439-8.44s3.779-8.439,8.439-8.439h39.384
	c4.661,0,8.439,3.779,8.439,8.439S246.593,419.165,241.932,419.165z"/>
</svg>