<?xml version="1.0" encoding="iso-8859-1"?>
<!-- Uploaded to: SVG Repo, www.svgrepo.com, Generator: SVG Repo Mixer Tools -->
<svg version="1.1" id="Layer_1" xmlns="http://www.w3.org/2000/svg" xmlns:xlink="http://www.w3.org/1999/xlink" 
	 viewBox="0 0 512 512" xml:space="preserve">
<polygon style="fill:#63ABA1;" points="512,33.758 512,376.967 478.242,376.967 433.231,205.363 478.242,33.758 "/>
<rect y="33.758" style="fill:#83C49A;" width="478.242" height="343.209"/>
<path style="fill:#55B9D3;" d="M402.286,0l11.253,386.689h22.505V33.758C436.044,15.191,420.853,0,402.286,0z"/>
<path style="fill:#8CE6FE;" d="M402.286,0c6.189,0,11.253,15.191,11.253,33.758v352.931h-45.011V33.758
	C368.527,15.191,383.719,0,402.286,0z"/>
<path style="fill:#D9F7FF;" d="M436.043,343.209h-33.758l33.758,42.817l33.758-9.058
	C469.801,358.321,454.689,343.209,436.043,343.209z"/>
<path style="fill:#FFFFFF;" d="M436.043,376.967v9.058l-95.086,25.532v-68.349h61.327
	C420.93,343.209,436.043,358.321,436.043,376.967z"/>
<path style="fill:#55B9D3;" d="M109.714,0l11.253,386.689h22.505V33.758C143.473,15.191,128.281,0,109.714,0z"/>
<path style="fill:#8CE6FE;" d="M109.714,0c6.189,0,11.253,15.191,11.253,33.758v352.931H75.956V33.758
	C75.956,15.191,91.147,0,109.714,0z"/>
<path style="fill:#D9F7FF;" d="M75.956,343.209c-18.644,0-33.757,15.115-33.757,33.758l128.844,34.588v-68.346H75.956z"/>
<g>
	<path style="fill:#FFFFFF;" d="M109.714,317.89c-4.662,0-8.44-3.779-8.44-8.44V135.033c0-4.661,3.778-8.44,8.44-8.44
		c4.662,0,8.44,3.779,8.44,8.44v174.418C118.154,314.111,114.376,317.89,109.714,317.89z"/>
	<path style="fill:#FFFFFF;" d="M109.714,109.714c-4.662,0-8.44-3.779-8.44-8.44V33.758c0-4.661,3.778-8.44,8.44-8.44
		c4.662,0,8.44,3.779,8.44,8.44v67.516C118.154,105.936,114.376,109.714,109.714,109.714z"/>
</g>
<path style="fill:#55B9D3;" d="M289.758,0H256l33.758,331.956h33.758V33.758C323.517,15.191,308.325,0,289.758,0z"/>
<path style="fill:#8CE6FE;" d="M289.758,33.758v298.198H188.484V33.758C188.484,15.191,203.675,0,222.242,0H256
	C274.567,0,289.758,15.191,289.758,33.758z"/>
<path style="fill:#D9F7FF;" d="M323.517,331.956c-15.394-20.503-39.902-33.758-67.517-33.758l78.769,78.769h33.758
	C368.527,352.11,348.374,331.956,323.517,331.956z"/>
<path style="fill:#FFFFFF;" d="M334.769,376.967H143.473c0-24.857,20.154-45.011,45.011-45.011
	c15.394-20.503,39.902-33.758,67.516-33.758c19.332,0,36.481,13.256,47.262,33.758C320.658,331.956,334.769,352.11,334.769,376.967z
	"/>
<polygon style="fill:#55B9D3;" points="512,376.967 512,436.044 500.747,444.484 512,452.923 512,512 478.242,512 433.231,444.484 
	478.242,376.967 "/>
<polygon style="fill:#8CE6FE;" points="478.242,376.967 478.242,512 0,512 0,452.923 11.253,444.484 0,436.044 0,376.967 "/>
<g>
	<path style="fill:#FFFFFF;" d="M368.527,419.165H143.473c-4.662,0-8.44-3.779-8.44-8.44c0-4.661,3.778-8.44,8.44-8.44h225.055
		c4.662,0,8.44,3.779,8.44,8.44C376.967,415.386,373.19,419.165,368.527,419.165z"/>
	<path style="fill:#FFFFFF;" d="M334.769,452.923H177.231c-4.662,0-8.44-3.779-8.44-8.44c0-4.661,3.778-8.44,8.44-8.44h157.538
		c4.662,0,8.44,3.779,8.44,8.44C343.209,449.144,339.431,452.923,334.769,452.923z"/>
	<path style="fill:#FFFFFF;" d="M368.527,486.681H143.473c-4.662,0-8.44-3.779-8.44-8.44s3.778-8.44,8.44-8.44h225.055
		c4.662,0,8.44,3.779,8.44,8.44S373.19,486.681,368.527,486.681z"/>
	<path style="fill:#FFFFFF;" d="M143.473,436.044H0v16.879h143.473c4.662,0,8.44-3.779,8.44-8.44
		C151.912,439.823,148.135,436.044,143.473,436.044z"/>
	<path style="fill:#FFFFFF;" d="M368.527,436.044c-4.662,0-8.44,3.779-8.44,8.44c0,4.661,3.778,8.44,8.44,8.44H512v-16.879H368.527z
		"/>
	<path style="fill:#FFFFFF;" d="M478.242,486.681h-75.956c-4.662,0-8.44-3.779-8.44-8.44s3.778-8.44,8.44-8.44h75.956
		c4.662,0,8.44,3.779,8.44,8.44S482.904,486.681,478.242,486.681z"/>
	<path style="fill:#FFFFFF;" d="M109.714,486.681H33.758c-4.662,0-8.44-3.779-8.44-8.44s3.778-8.44,8.44-8.44h75.956
		c4.662,0,8.44,3.779,8.44,8.44S114.376,486.681,109.714,486.681z"/>
	<path style="fill:#FFFFFF;" d="M256,272.879c-4.662,0-8.44-3.779-8.44-8.44V101.275c0-4.661,3.778-8.44,8.44-8.44
		c4.662,0,8.44,3.779,8.44,8.44V264.44C264.44,269.1,260.662,272.879,256,272.879z"/>
	<path style="fill:#FFFFFF;" d="M256,75.956c-4.662,0-8.44-3.779-8.44-8.44V33.758c0-4.661,3.778-8.44,8.44-8.44
		c4.662,0,8.44,3.779,8.44,8.44v33.758C264.44,72.177,260.662,75.956,256,75.956z"/>
	<path style="fill:#FFFFFF;" d="M222.242,277.869c-4.662,0-8.44-3.779-8.44-8.44v-33.758c0-4.661,3.778-8.44,8.44-8.44
		c4.662,0,8.44,3.779,8.44,8.44v33.758C230.681,274.09,226.904,277.869,222.242,277.869z"/>
	<path style="fill:#FFFFFF;" d="M222.242,210.352c-4.662,0-8.44-3.779-8.44-8.44V67.516c0-4.661,3.778-8.44,8.44-8.44
		c4.662,0,8.44,3.779,8.44,8.44v134.396C230.681,206.573,226.904,210.352,222.242,210.352z"/>
	<path style="fill:#FFFFFF;" d="M289.758,277.869c-4.662,0-8.44-3.779-8.44-8.44V67.516c0-4.661,3.778-8.44,8.44-8.44
		c4.662,0,8.44,3.779,8.44,8.44v201.913C298.198,274.09,294.42,277.869,289.758,277.869z"/>
	<path style="fill:#FFFFFF;" d="M402.286,317.89c-4.662,0-8.44-3.779-8.44-8.44V135.033c0-4.661,3.778-8.44,8.44-8.44
		s8.44,3.779,8.44,8.44v174.418C410.725,314.111,406.948,317.89,402.286,317.89z"/>
	<path style="fill:#FFFFFF;" d="M402.286,109.714c-4.662,0-8.44-3.779-8.44-8.44V33.758c0-4.661,3.778-8.44,8.44-8.44
		s8.44,3.779,8.44,8.44v67.516C410.725,105.936,406.948,109.714,402.286,109.714z"/>
</g>
</svg>