<svg width="30" height="22" viewBox="0 0 30 22" fill="none" xmlns="http://www.w3.org/2000/svg"><path d="M0 4.66667H13L14 6.66667H1L0 4.66667ZM1.33333 8.66667H14.3333L15.3333 10.6667H2.33333L1.33333 8.66667ZM23 19.3333C24.1067 19.3333 25 18.44 25 17.3333C25 16.2267 24.1067 15.3333 23 15.3333C21.8933 15.3333 21 16.2267 21 17.3333C21 18.44 21.8933 19.3333 23 19.3333ZM25 7.33333H21.6667V10.6667H27.6133L25 7.33333ZM9.66667 19.3333C10.7733 19.3333 11.6667 18.44 11.6667 17.3333C11.6667 16.2267 10.7733 15.3333 9.66667 15.3333C8.56 15.3333 7.66667 16.2267 7.66667 17.3333C7.66667 18.44 8.56 19.3333 9.66667 19.3333ZM25.6667 5.33333L29.6667 10.6667V17.3333H27C27 19.5467 25.2133 21.3333 23 21.3333C20.7867 21.3333 19 19.5467 19 17.3333H13.6667C13.6667 19.5467 11.8667 21.3333 9.66667 21.3333C7.45333 21.3333 5.66667 19.5467 5.66667 17.3333H3V12.6667H5.66667V14.6667H6.68C7.41333 13.8533 8.48 13.3333 9.66667 13.3333C10.8533 13.3333 11.92 13.8533 12.6533 14.6667H19V2.66667H3C3 1.18667 4.18667 0 5.66667 0H21.6667V5.33333H25.6667Z" fill="#EFF6FF"></path></svg>