 <svg className="mb-8" width="32" height="32" viewBox="0 0 32 32" fill="none" xmlns="http://www.w3.org/2000/svg">
        <path d="M16 2V30" stroke="#3B82F6" stroke-width="2" stroke-linecap="round" stroke-linejoin="round" />
        <path d="M19.6075 5C18.5188 5.65621 17.2712 6.00203 16 6C14.7288 6.00203 13.4812 5.65621 12.3925 5"
          stroke="#3B82F6" stroke-width="2" stroke-linecap="round" stroke-linejoin="round" />
        <path d="M12.3925 27C13.4821 26.3457 14.7291 26 16 26C17.2709 26 18.518 26.3457 19.6075 27" stroke="#3B82F6"
          stroke-width="2" stroke-linecap="round" stroke-linejoin="round" />
        <path d="M28.1244 9L3.87563 23" stroke="#3B82F6" stroke-width="2" stroke-linecap="round"
          stroke-linejoin="round" />
        <path
          d="M27.3294 13.625C26.2177 13.0085 25.2947 12.1011 24.6593 11.0001C24.0239 9.89912 23.7001 8.64599 23.7225 7.375"
          stroke="#3B82F6" stroke-width="2" stroke-linecap="round" stroke-linejoin="round" />
        <path
          d="M4.67062 18.375C5.7823 18.9915 6.70528 19.8989 7.34067 20.9999C7.97605 22.1009 8.2999 23.354 8.2775 24.625"
          stroke="#3B82F6" stroke-width="2" stroke-linecap="round" stroke-linejoin="round" />
        <path d="M3.87563 9L28.1244 23" stroke="#3B82F6" stroke-width="2" stroke-linecap="round"
          stroke-linejoin="round" />
        <path
          d="M4.67062 13.625C5.7823 13.0085 6.70528 12.1011 7.34067 11.0001C7.97605 9.89912 8.2999 8.64599 8.2775 7.375"
          stroke="#3B82F6" stroke-width="2" stroke-linecap="round" stroke-linejoin="round" />
        <path
          d="M27.3294 18.375C26.2177 18.9915 25.2947 19.8989 24.6593 20.9999C24.0239 22.1009 23.7001 23.354 23.7225 24.625"
          stroke="#3B82F6" stroke-width="2" stroke-linecap="round" stroke-linejoin="round" />
      </svg>